<svg xmlns="http://www.w3.org/2000/svg" width="145.99" height="145.99" viewBox="0 0 145.99 145.99"><path d="M75.245,2.25a72.995,72.995,0,1,0,72.995,73A72.995,72.995,0,0,0,75.245,2.25Zm44.242,117.237A62.567,62.567,0,0,1,31,31a62.567,62.567,0,0,1,88.484,88.484Z" transform="translate(-2.25 -2.25)" fill="#fff"/><g transform="translate(20.856 20.856)"><path d="M37.249,7.458a52.307,52.307,0,0,0-29.562,28h47.8Z" transform="translate(-3.344 -4.177)" fill="#fff"/><path d="M55.04,53.3a52.375,52.375,0,0,0,1.044-10.428A51.907,51.907,0,0,0,45.325,11.156L21.867,53.3Z" transform="translate(48.195 9.265)" fill="#fff"/><path d="M57.874,19.262A51.931,51.931,0,0,0,23.992,6.75a52.562,52.562,0,0,0-7.641.559L41.867,48.461Z" transform="translate(28.147 -6.75)" fill="#fff"/><path d="M7.794,15.75a52.239,52.239,0,0,0,9.723,42.157L40.966,15.75Z" transform="translate(-6.75 25.961)" fill="#fff"/><path d="M36.235,50.5A52.305,52.305,0,0,0,65.8,22.5H18Z" transform="translate(34.139 50.495)" fill="#fff"/><path d="M10.691,49.455A51.93,51.93,0,0,0,44.566,61.961,52.6,52.6,0,0,0,52.21,61.4L26.7,20.25Z" transform="translate(7.573 42.317)" fill="#fff"/></g></svg>