<svg xmlns="http://www.w3.org/2000/svg" width="167.709" height="146.745" viewBox="0 0 167.709 146.745"><path d="M15.723,2.25A15.727,15.727,0,0,0,0,17.973v115.3a15.727,15.727,0,0,0,15.723,15.723H151.986a15.727,15.727,0,0,0,15.723-15.723V17.973A15.727,15.727,0,0,0,151.986,2.25Zm0,10.482H50.444A1.971,1.971,0,0,1,52.409,14.7v6.551a1.971,1.971,0,0,1-1.965,1.965h-38a1.971,1.971,0,0,1-1.965-1.965V17.973A5.256,5.256,0,0,1,15.723,12.732ZM155.261,44.177H12.447a1.971,1.971,0,0,1-1.965-1.965V30.42a1.971,1.971,0,0,1,1.965-1.965h45.2l9.892-14.838a1.951,1.951,0,0,1,1.638-.884h82.806a5.256,5.256,0,0,1,5.241,5.241V42.212A1.971,1.971,0,0,1,155.261,44.177ZM83.854,130.652a39.307,39.307,0,1,1,39.307-39.307A39.338,39.338,0,0,1,83.854,130.652Zm0-68.132a28.825,28.825,0,1,0,28.825,28.825A28.867,28.867,0,0,0,83.854,62.52ZM68.132,96.586a5.256,5.256,0,0,1-5.241-5.241A20.983,20.983,0,0,1,83.854,70.382a5.241,5.241,0,0,1,0,10.482A10.513,10.513,0,0,0,73.372,91.345,5.256,5.256,0,0,1,68.132,96.586Z" transform="translate(0 -2.25)" fill="#fff"/></svg>