<svg xmlns="http://www.w3.org/2000/svg" xmlns:xlink="http://www.w3.org/1999/xlink" width="429" height="872" viewBox="0 0 429 872"><defs><linearGradient id="a" x1="0.5" x2="0.5" y2="0.536" gradientUnits="objectBoundingBox"><stop offset="0" stop-color="#fff" stop-opacity="0"/><stop offset="1" stop-color="#fff"/></linearGradient><linearGradient id="b" x1="1" y1="0.5" x2="0" y2="0.5" gradientUnits="objectBoundingBox"><stop offset="0" stop-color="#1ecbf4"/><stop offset="1" stop-color="#194dc3"/></linearGradient><linearGradient id="c" x1="1" y1="0.5" x2="0" y2="0.5" gradientUnits="objectBoundingBox"><stop offset="0" stop-color="#1ef4ba"/><stop offset="1" stop-color="#199cc3"/></linearGradient><linearGradient id="d" x1="1" y1="0.5" x2="0" y2="0.5" gradientUnits="objectBoundingBox"><stop offset="0" stop-color="#ef427c"/><stop offset="1" stop-color="#b41c8b"/></linearGradient><linearGradient id="e" x1="1" y1="0.5" x2="0" y2="0.5" gradientUnits="objectBoundingBox"><stop offset="0" stop-color="#f4cb1e"/><stop offset="1" stop-color="#c33a19"/></linearGradient></defs><rect width="417" height="858" rx="70" transform="translate(6 7)" fill="#848484"/><path d="M325,812H50A49.958,49.958,0,0,1,0,762V50A49.959,49.959,0,0,1,50,0H90.079C90.027.657,90,1.33,90,2a24.92,24.92,0,0,0,7.322,17.677,24.916,24.916,0,0,0,7.947,5.358A24.847,24.847,0,0,0,115,27H261a24.846,24.846,0,0,0,9.731-1.965,24.918,24.918,0,0,0,7.947-5.358A24.922,24.922,0,0,0,286,2c0-.665-.027-1.338-.079-2H325a49.959,49.959,0,0,1,50,50V762a49.959,49.959,0,0,1-50,50Z" transform="translate(27 30)" fill="#fff"/><rect width="429" height="872" fill="url(#a)"/><g transform="translate(110.289 126.232)"><g transform="translate(0 0)"><rect width="154.076" height="60.291" rx="10" transform="translate(99.475 0) rotate(45)" fill="url(#b)"/><rect width="46.893" height="46.893" rx="10" transform="translate(99.475 75.79) rotate(-135)" fill="url(#c)"/><rect width="154.076" height="60.291" rx="10" transform="translate(108.948 208.423) rotate(-135)" fill="url(#d)"/><rect width="46.893" height="46.893" rx="10" transform="translate(108.948 132.633) rotate(45)" fill="url(#e)"/></g><text transform="translate(31.711 255.768)" fill="#3c3c3c" font-size="49" font-family="LucidaGrande, Lucida Grande"><tspan x="0" y="0">Pixary</tspan><tspan y="0" font-size="28.582" baseline-shift="16.331699640779906">®</tspan></text></g></svg>