<svg xmlns="http://www.w3.org/2000/svg" xmlns:xlink="http://www.w3.org/1999/xlink" width="159.056" height="62.113" viewBox="0 0 159.056 62.113"><defs><linearGradient id="a" x1="1" y1="0.5" x2="0" y2="0.5" gradientUnits="objectBoundingBox"><stop offset="0" stop-color="#1ecbf4"/><stop offset="1" stop-color="#194dc3"/></linearGradient><linearGradient id="b" x1="1" y1="0.5" x2="0" y2="0.5" gradientUnits="objectBoundingBox"><stop offset="0" stop-color="#1ef4ba"/><stop offset="1" stop-color="#199cc3"/></linearGradient><linearGradient id="c" x1="1" y1="0.5" x2="0" y2="0.5" gradientUnits="objectBoundingBox"><stop offset="0" stop-color="#ef427c"/><stop offset="1" stop-color="#b41c8b"/></linearGradient><linearGradient id="d" x1="1" y1="0.5" x2="0" y2="0.5" gradientUnits="objectBoundingBox"><stop offset="0" stop-color="#f4cb1e"/><stop offset="1" stop-color="#c33a19"/></linearGradient></defs><g transform="translate(127.944 0)"><rect width="23" height="9" rx="2" transform="translate(14.849 0) rotate(45)" fill="url(#a)"/><rect width="7" height="7" rx="1" transform="translate(14.849 11.314) rotate(-135)" fill="url(#b)"/><rect width="23" height="9" rx="2" transform="translate(16.263 31.113) rotate(-135)" fill="url(#c)"/><rect width="7" height="7" rx="1" transform="translate(16.263 19.799) rotate(45)" fill="url(#d)"/></g><path d="M3.5.45c.1,0,.2-.05.3,0,.05.1.1.05.1,0A.231.231,0,0,1,4.05.2a.26.26,0,0,0,.1-.2A.184.184,0,0,1,4.2-.15c.2-.05.2-.05.3-.25.05-.05.15-.15.15-.2.05-.05.15-.05.15-.1-.05-.1,0-.1,0-.2V-1a.976.976,0,0,0,.05-.35c.15-.15.4-.25.45-.55,0-.05.05-.05.05-.1.15-.05.15-.05.05-.2.05,0,.1-.05.15-.05.1-.05.1,0,.15.05a.049.049,0,0,0,.05.05.849.849,0,0,1,.3-.3.148.148,0,0,0,.1-.2c0-.05.05-.05.05-.1.15-.1.1-.25.1-.4l.05-.2c0-.1.1-.25.05-.35a.871.871,0,0,1-.05-.7c0-.15-.05-.2-.05-.3s.1-.15.1-.25V-5a1.2,1.2,0,0,1,.15-1c0-.05.1-.15,0-.25A.184.184,0,0,1,6.6-6.4a.382.382,0,0,0,.1-.25c.1-.1,0-.25.05-.35a.478.478,0,0,0,0-.45V-7.6c.05-.2.05-.4.1-.6a.48.48,0,0,0-.15-.5c-.05-.05-.1-.1-.1-.15s.05-.05.1-.05h.1v-.05A.806.806,0,0,1,7-9.3c.1-.1.25-.3.05-.45a.3.3,0,0,1,.05-.2.124.124,0,0,0,.05-.2A.4.4,0,0,1,7-10.6c0-.1-.1-.2-.1-.35a.184.184,0,0,1-.05-.15c.05-.05.05-.05.1-.05s.05,0,.05.05.05.1.1.05a.26.26,0,0,0,.1-.2v-.2c-.05-.05-.15.05-.15,0-.05-.15-.2-.2-.15-.35v-.3c.05-.2.05-.45.25-.55.05,0,.05-.05.1-.1v-.05c-.1,0-.1-.05-.1-.05.05-.1,0-.15-.1-.15,0-.05-.05,0-.1-.05a.378.378,0,0,0,.05-.2l.1-.1c0-.05,0-.1.1-.1.1.05.1,0,.1-.1a.711.711,0,0,0-.1-.3c-.1.1-.2.15-.25.25-.05.05-.1.05-.1,0-.05-.05-.15-.1-.15-.2V-14a.319.319,0,0,1,0-.3c.05-.1.15-.15,0-.25a.049.049,0,0,1-.05-.05c.1-.1.05-.2.05-.3.05.05.15.05.2.1a.94.94,0,0,1,.25.55c0,.05,0,.1.05.1.1,0,.1-.05.1-.15v-.1c0-.1-.05-.2.1-.25h.05c-.1-.1,0-.2-.15-.25a.049.049,0,0,1-.05-.05c.05-.1-.05-.2,0-.3a.184.184,0,0,1,.05-.15.51.51,0,0,0,.25-.4c-.05-.15,0-.2,0-.3,0-.05.1-.1.05-.15a.723.723,0,0,1-.35-.1c-.1-.05-.2-.05-.3.1,0-.2-.15-.35.1-.5a.274.274,0,0,0,.3.2c-.05-.1.1-.2.05-.3-.05,0-.05.05-.1.1,0,0,0,.05-.05,0,0-.05-.05-.05,0-.1l.05-.05a.184.184,0,0,0,.05-.15l.05-.2c.05-.05.1.05.15,0,.05-.2.15-.3.05-.5a.3.3,0,0,1,.05-.2c.1.05.15,0,.2.05.1.05.05.15,0,.2H7.9a.371.371,0,0,0,.3.3.375.375,0,0,1,.4.25.108.108,0,0,0,.1.1.275.275,0,0,1,.25.15h.1a1.729,1.729,0,0,1,.6.35c.1.05.15.1.25.05.05-.05.1-.05.1.05,0,.05.05.1.1.05.1-.05.15,0,.2.05.1,0,.15,0,.2-.05.1,0,.15,0,.2-.05.1,0,.15,0,.2-.05.05-.1.1-.1.2-.05s.2.1.3,0c.1.1.15,0,.25-.05a.806.806,0,0,1,.45-.15.22.22,0,0,0,.25-.05,4.437,4.437,0,0,1,.7-.15c.15-.05.3-.05.45-.1a1.776,1.776,0,0,0,.45-.2.184.184,0,0,0,.15-.05,1.68,1.68,0,0,0,.7-.25,1.52,1.52,0,0,1,.35-.25,3.965,3.965,0,0,0,.45-.2c.15-.1.25-.25.45-.3.15-.05.25-.15.4-.15a3.285,3.285,0,0,0,.85-.6,2,2,0,0,1,.6-.5c.15-.2.4-.3.55-.55,0-.05.1-.05.15-.1a.155.155,0,0,1,.1-.05,3.039,3.039,0,0,0,.5-.7l.15-.25c0-.05.05-.05.1-.1a.236.236,0,0,0,.2-.3c0-.1,0-.15.1-.15.05-.05.1-.05.1-.15a.506.506,0,0,1,.2-.35c0-.05.05-.05,0-.1a.422.422,0,0,1,.1-.35l.15-.45a1.048,1.048,0,0,1,.2-.55c-.1-.05.05-.1,0-.15a.838.838,0,0,1,.15-.6l.1-.25c.05-.2.05-.4.1-.6.05-.15.05-.3.1-.4.05-.05,0-.1,0-.15,0-.3.1-.5.35-.55a.436.436,0,0,0,.4-.3c.05-.1.15-.15.1-.2-.05-.15,0-.2.1-.3a.175.175,0,0,0,.05-.1c-.15,0-.2-.1-.3-.2-.1-.05-.15-.1-.25-.1h-.1c-.05.05-.1,0-.1-.1v-.5c.05-.15,0-.35.1-.5v-.05a1.667,1.667,0,0,1,0-.5.478.478,0,0,0,0-.45v-.15c0-.1.05-.25,0-.35-.1-.15,0-.25,0-.4,0-.1-.1-.2-.05-.35a.9.9,0,0,0-.15-.6.3.3,0,0,1,0-.35c0-.05,0-.05.05-.1.05-.1-.05-.25-.15-.3-.1,0-.15-.1-.05-.15.05-.05,0-.1.05-.15,0-.05-.1-.05-.15-.1.05-.05.1-.1.05-.2-.05-.2-.15-.4-.05-.6a.308.308,0,0,0-.05-.35c-.05-.05-.05-.1,0-.2s0-.15-.05-.25c-.15-.1-.2-.3-.3-.5.05-.25-.2-.45-.25-.7l-.1-.1a1.557,1.557,0,0,1-.45-.35c-.05-.15-.2-.3-.25-.45a1.586,1.586,0,0,0-.25-.3,3.017,3.017,0,0,0-.4-.4c-.05-.05-.05-.15-.15-.15a2.9,2.9,0,0,1-.6-.5,4.714,4.714,0,0,0-.5-.5c-.05,0-.1-.05-.15-.05-.15,0-.15,0-.25-.1a.26.26,0,0,1-.1-.2c-.05-.05-.1-.15-.2-.15-.1-.05-.1-.1-.15-.15,0-.1-.1-.1-.15-.1s-.1.05-.15.05a.27.27,0,0,1-.4-.1c-.1-.05-.15-.1-.2-.05a.367.367,0,0,1-.3-.1l-.05.05c-.05.05-.05-.05-.05-.05-.05-.05-.05,0-.1.05,0,.05-.05,0-.1,0a1.177,1.177,0,0,0-.4-.1,4.376,4.376,0,0,0-.8.1c-.15,0-.3-.05-.45.05a.338.338,0,0,1-.3.2c-.1.15-.3.2-.45.3-.05.05-.1.1-.2.05-.05-.05-.1,0-.1.05-.05.1-.1.1-.2.05a.184.184,0,0,0-.15.05,1.848,1.848,0,0,1-.55.25,1.794,1.794,0,0,0-.7.5,4.17,4.17,0,0,1-.6.4,2.31,2.31,0,0,0-.35.35,1.093,1.093,0,0,1-.15.25.26.26,0,0,0-.1.2.275.275,0,0,1-.15.25c-.1.05-.15.1-.1.15a.165.165,0,0,1,0,.25,1.4,1.4,0,0,0-.3,1v.3a.155.155,0,0,1-.05.1.231.231,0,0,0-.15.25H8.85c-.05,0-.05,0-.05-.05v-.05a1.477,1.477,0,0,0-.1-.65.152.152,0,0,1,0-.2c0-.1.05-.2-.05-.3-.05,0-.05-.05-.05-.1.1-.1.05-.1,0-.15-.2-.15-.35-.3-.5-.4l-.15-.1c-.05-.05,0-.15-.15-.15-.1,0-.1-.15-.2-.15-.05.05-.05,0-.05-.05a.049.049,0,0,0-.05-.05.069.069,0,0,1-.1,0,.187.187,0,0,0-.2-.15l-.3-.15c-.1,0-.2-.15-.3-.2l-.4-.15a1.46,1.46,0,0,0-.45-.1.3.3,0,0,1-.35-.05c-.1,0-.15-.05-.2-.05a.706.706,0,0,1-.45-.05.247.247,0,0,0-.15-.05.184.184,0,0,0-.05.15c-.1,0-.15-.1-.2-.1h-.1c0-.15-.15-.15-.2-.2a5.077,5.077,0,0,0-1.25-.3.838.838,0,0,1-.6-.15c-.05-.1-.15-.05-.2-.05a2.434,2.434,0,0,1-.6-.05.236.236,0,0,0-.3.05c0,.05-.05.05-.1.05-.1-.05-.2.05-.3.1a.274.274,0,0,0-.2.3l-.05.2c0,.1.05.2,0,.3a.155.155,0,0,0,.05.1v.1c-.1.1,0,.2.05.25.05.1.05.25.15.3a.275.275,0,0,1,.25.15,2.254,2.254,0,0,0,.15.55,1.067,1.067,0,0,1,0,.4.9.9,0,0,0-.1.7c0,.1.05.15.05.2a.2.2,0,0,0,.1.3c-.05.05-.15.1-.15.2.05.1.05.15-.05.25-.1.05-.15.1-.05.2s.1.2,0,.25a.184.184,0,0,0-.05.15.3.3,0,0,1-.05.2c-.05.05-.05.1-.05.2a.9.9,0,0,1-.05.5c0,.1-.05.25.1.3a.184.184,0,0,1,.05.15c0,.1-.1.15-.05.2.1.15.05.2-.05.3v.15A7.585,7.585,0,0,0,.6-30.05v.1a.548.548,0,0,0,0,.4c.05.1.1.25-.05.35-.05,0-.05.05-.05.1l.05.35c0,.15.1.3-.05.4v.55a.888.888,0,0,0,.2.5c-.05.05-.15.1-.15.2.05.2-.1.3-.15.4a.184.184,0,0,0-.05.15c.1.1.05.25,0,.35,0,.1-.05.15-.05.25v.85a.634.634,0,0,0,.05.3c.05,0,.1.1-.05.15-.05,0-.05.05,0,.05.05.05,0,.1,0,.2v.25a.2.2,0,0,0,.1.2c.05,0,.05.1,0,.15,0,.15-.05.25-.05.4a.851.851,0,0,1,.05.35.422.422,0,0,1-.1.35.236.236,0,0,0-.05.3c.05.15.05.15,0,.25a.152.152,0,0,0,0,.2c.05.2-.05.35,0,.55-.1.05,0,.15,0,.2a.454.454,0,0,0,0,.5c.05.05.05.05,0,.1v.15a.165.165,0,0,1,0,.25.3.3,0,0,0,0,.35.152.152,0,0,1,0,.2c-.05,0-.05.05-.05.1.1.05.05.15.05.25a.152.152,0,0,0,0,.2v.1c-.05.15,0,.3-.1.45,0,.05-.05.05,0,.05a.184.184,0,0,1,.05.15.223.223,0,0,0,0,.25c.1.1,0,.2.05.25s0,.05-.05.1-.05.1,0,.2c0,.05.1.1,0,.15,0,.05.1.05.1.1.05.1,0,.3-.05.3-.15.05-.05.1-.1.15-.05.15.05.25,0,.35,0,.2.05.45.05.7.05.1,0,.15-.05.2a.379.379,0,0,0,0,.5.165.165,0,0,1,0,.25.22.22,0,0,0,.05.25c.05.05.1.1.1.15A1.384,1.384,0,0,1,.25-14a.375.375,0,0,0,0,.45c.05.15-.05.15-.1.2-.1.1-.1.05-.05.2v.05a2.51,2.51,0,0,0-.1.6c.1-.05.15-.05.2-.1,0,0,0-.1.05-.05a.108.108,0,0,1,.1.1c0,.1.05.15.05.25v.1a.094.094,0,0,1-.15,0c-.05,0-.1-.1-.15-.05a.26.26,0,0,0-.1.2v.5c.05.1.05.2.15.3a.175.175,0,0,1,.05.1,1.384,1.384,0,0,1-.05.45.694.694,0,0,0,0,.45.378.378,0,0,1,.05.2c-.05.05,0,.1,0,.15a.379.379,0,0,1,.1.2c-.15.05-.2.1-.1.2a.541.541,0,0,1-.05.3c-.05.1-.15.25-.1.35.1.2,0,.45.1.7C.05-8,.15-7.8.1-7.6c0,.05-.05.1,0,.1.1.1.05.2-.05.25A.184.184,0,0,0,0-7.1c0,.15.1.25.1.4.05.05.05,0,.1,0a.185.185,0,0,1,.15.1c-.15.15,0,.25,0,.35-.05.1.1.3-.1.3A.049.049,0,0,0,.2-5.9c-.1.1,0,.2-.05.3,0,.1.1.1.15.15,0,.05.05.1.05.15,0,.15.1.2.2.25C.6-5,.6-5,.6-4.95a1.1,1.1,0,0,1-.05.4,1,1,0,0,1-.4.2c-.05.05-.1.05-.1.1h.1c.05-.05.1,0,.15.05s.1.15.2.2c.05,0,.05.1.05.15-.05.05,0,.05,0,.1a2.773,2.773,0,0,0,.3.4c.05.05.05.1.05.2a.385.385,0,0,0-.05.5.152.152,0,0,1,0,.2.3.3,0,0,0-.05.2c.05.1,0,.1,0,.15-.1.4.1.6.4.6a.1.1,0,0,0,.15-.05c0-.1.05-.15.05-.25,0-.05-.1-.1,0-.1.05-.05.05.05.1.1a.175.175,0,0,1,.05.1.288.288,0,0,0,.3.3c.05.05.1.1.1.15a2.164,2.164,0,0,1,.25.6c0,.05,0,.1.05.1,0,.05.05.1.1,0V-.6c.1,0,.1.15.25.1,0-.05.1.05.1.15V-.2A.475.475,0,0,0,3,.3l.05.05A1.194,1.194,0,0,0,3.5.45Zm4.05-23.3a.175.175,0,0,1-.1-.05.422.422,0,0,1,.1-.35c.05,0,.05,0,.1-.05s-.1-.15,0-.2.1-.1.15-.15a.184.184,0,0,0-.05-.15c-.05-.05,0-.15-.05-.25a.483.483,0,0,1,.1-.4c.05-.05.1-.1.05-.15,0-.2,0-.2.2-.3,0-.2-.25-.15-.3-.3a.049.049,0,0,1,.05-.05h.15c0-.05.05-.15,0-.2v-.1A.241.241,0,0,1,8-25.9c.05-.05.05-.1.05-.2C8-26.1,8-26.2,8-26.2a.165.165,0,0,1,0-.25c.2-.05.15-.25.15-.35-.05-.15.05-.3,0-.45a.049.049,0,0,0,.05-.05.422.422,0,0,0,.1-.35v-.25c0-.2.15-.25.2-.4,0,.05.05.05.05-.05.1-.25.1-.5.2-.75,0-.1.05-.2-.05-.3-.05-.05,0-.05,0-.1.05-.05.1-.1.15-.1a.183.183,0,0,0,.2-.2c.05-.1.1-.2,0-.3-.1-.15-.1-.2.05-.3a.476.476,0,0,0,.1-.35c0-.1,0-.15.05-.15.1-.05.15-.1.1-.15-.1-.15-.05-.25,0-.4a3.729,3.729,0,0,0,.35-.6,1.776,1.776,0,0,0,.2-.45.155.155,0,0,1,.05-.1,5.27,5.27,0,0,0,.35-.55,3.628,3.628,0,0,1,.25-.45c.05-.1.05-.15.15-.2s.05-.15.1-.2a1.479,1.479,0,0,0,.1-.5c0-.1.15-.2.25-.25a.108.108,0,0,0,.1-.1.425.425,0,0,1,.15-.25.694.694,0,0,0,.25-.5c0-.05.05-.05.1-.1.1,0,.1-.1.15-.2a.311.311,0,0,1,.2-.3c.05,0,.05-.15.15-.15.05-.15.2-.2.3-.3.1-.05.15-.1.25-.15v-.05a7.4,7.4,0,0,1,.65-.4c.05-.05.15-.1.15-.15,0-.1.05-.1.1-.15a2.026,2.026,0,0,1,.55,0c.1,0,.15.1.2.15s.1.15.15.1c.1,0,.1,0,.1.05,0,.2.2.25.3.35h.05l.15-.1c0,.05,0,.1.1.15.05.05.1.1.15,0h.05a.175.175,0,0,0,.05.1l-.15.15c-.15.15-.15.15-.05.3a.049.049,0,0,0,.05.05c.2-.05.2-.35.4-.4.1.05.05.15.05.25a.637.637,0,0,0,0,.6c.05,0,.1,0,.1-.05s0-.1.05-.05c.05,0,.1.1.1.1-.15.05-.05.15-.05.25.05.1.05.2.1.25s.05.05,0,.05c-.1.05-.05.2-.05.25-.05.1-.05.15.05.2s.1.1.05.2a.711.711,0,0,0,.1.3v.1a.427.427,0,0,0,0,.35v.1a.741.741,0,0,0,.05.35c.05.05.05.05.05.1-.05.1,0,.15.05.15a.927.927,0,0,1,.1.35c.05.1.1.15.05.25-.05.05,0,.05,0,.1.15.05.15.2.15.3,0,.15.1.25,0,.4a.423.423,0,0,0,0,.35.331.331,0,0,1-.05.3c0,.05-.05.1-.05.2a.375.375,0,0,0,.05.25.184.184,0,0,1,.05.15c0,.05,0,.1-.05.05-.1,0-.15-.05-.2-.05-.05-.05-.15,0-.15.1a.544.544,0,0,0,.05.25c-.05.05-.15,0-.15.05-.1.05-.1.15-.1.25.05.15.2.25.2.4-.1.05-.2,0-.15.15a.382.382,0,0,1-.1.25.745.745,0,0,0-.2.45c0,.15-.05.3-.05.45,0,.1-.15.2-.2.35a.817.817,0,0,1,0,.35,2.948,2.948,0,0,1-.2.4c0,.05-.05.1,0,.15,0,.05,0,.1-.05.1l-.85.3a1.048,1.048,0,0,0-.55.2.155.155,0,0,1-.1.05c-.15,0-.25.1-.4.15a1.753,1.753,0,0,1-.7.3.455.455,0,0,0-.4.2c-.05.05-.05.05-.15.05a.728.728,0,0,0-.45.3c-.05.1-.2.15-.2.3-.05.1-.2.15-.2.3l-.05.05c-.1,0-.2.1-.3.15-.05,0-.05,0-.05-.05-.05-.1-.1-.1-.2-.05-.1.1-.25,0-.35.1a4.372,4.372,0,0,0-.5.4c-.1.1-.2.15-.3.1a.382.382,0,0,0-.25.1c-.05.05-.1.15-.2.2a1.253,1.253,0,0,1-.35.2,1.848,1.848,0,0,0-.55.25c-.1.1-.25.1-.3.25,0,.05-.05.05-.1.05C7.8-22.85,7.65-22.9,7.55-22.85Zm8.3-14.05c-.15-.05-.1-.2-.1-.3,0-.05,0-.05.05-.1,0,.05.05.05.1.05a.236.236,0,0,1,.05.3A.175.175,0,0,0,15.85-36.9ZM8.95-20a.049.049,0,0,1-.05-.05v-.1c-.2-.05-.1-.2-.15-.3a1.421,1.421,0,0,0-.2-.6.3.3,0,0,1,.05-.2l.3-.3.15-.15c.05-.2.15-.25.3-.35a1.326,1.326,0,0,0,.3-.25,1.8,1.8,0,0,1,.5-.35,2.087,2.087,0,0,0,.4-.3c.05-.1.2-.15.35-.2.1,0,.2-.1.3-.15.05-.05.15-.2.25-.15.2-.1.35-.1.45-.3.05-.05.05-.1.1-.1a1.177,1.177,0,0,1,.4-.1.389.389,0,0,0,.4-.1.411.411,0,0,1,.35-.05c0,.05.05,0,.1,0,.3-.1.6-.25.95-.35.05,0,.05,0,.1.05h-.05a2.512,2.512,0,0,0-.4.6c-.05.05-.15.05-.15.1a.26.26,0,0,0-.1.2c-.05.05-.15.1-.15.15a.379.379,0,0,0-.1.2c-.05.15-.15.2-.25.3a7.1,7.1,0,0,0-.6.65c0,.05-.05.1-.05.2v.05c-.2.05-.15.3-.3.4-.1.05,0,.1,0,.15-.05.05.05.05.1.1-.05.1-.15.05-.2.1-.05,0-.1-.05-.15,0-.05.15-.2.15-.25.25s-.2.1-.3.15a.878.878,0,0,1-.25.2,1.256,1.256,0,0,1-.7.3c-.05,0-.1,0-.1.05-.05.1-.1.2-.25.15a1.354,1.354,0,0,1-.8-.05.069.069,0,0,0-.1,0c-.05.05-.05.1-.1.1C9.05-20,9-20,8.95-20ZM6.8-15a.415.415,0,0,1-.1-.6c.05-.05,0-.1,0-.15.05-.05.05-.15.15-.15A.184.184,0,0,0,7-15.95s-.05-.1.05-.05c.05,0,0,.05-.05.1-.15.3-.15.35.15.55v.05C6.85-15.15,6.85-15.15,6.8-15ZM26.6-26.8a.975.975,0,0,1,.4-.05.184.184,0,0,1,.15-.05,1.411,1.411,0,0,0,.75-.2c.05-.05.05-.05.1,0,.05.1.1.05.2,0,.05-.05.1-.15.2-.2.05-.05.1-.1.1-.15a.108.108,0,0,1,.1-.1c.05,0,.15.05.2,0a1.2,1.2,0,0,0,.3-.4c0-.1-.05-.15-.1-.25,0-.05,0-.1-.05-.1,0,.35-.05.4-.4.35,0-.1.05-.2.05-.3s-.1-.1-.1-.05c-.05,0-.05.05-.1.05-.05.05-.1.1-.15.1a.108.108,0,0,1-.1-.1c.1-.1.15-.2.25-.25a1.091,1.091,0,0,1-.25-.2c-.1-.1-.25-.05-.3-.2h.2a.28.28,0,0,0,.3-.25c.05-.05,0-.05.05-.1a.069.069,0,0,1,.1,0c0,.1.1.15.25.2.05,0,.1,0,.1.1,0,.05,0,.05.05.05a.747.747,0,0,0,.35.15.367.367,0,0,1,.1-.3.375.375,0,0,0,.05-.25l.05-.35c0-.1.15-.1.1-.2,0-.05,0-.1.05-.1.05-.05.1-.1.1-.15a.094.094,0,0,0,0-.15.108.108,0,0,1-.1-.1c.1-.1,0-.25.1-.35.15-.3.15-.45-.05-.6,0,.1-.05.1-.1.15v-.15c-.05-.2.05-.35.25-.3a.175.175,0,0,0,.1-.05.828.828,0,0,0,0-.6c0-.05-.05-.1-.05-.2s-.05-.15-.1-.25c-.1-.1-.25,0-.35-.1-.15.05-.1-.05-.05-.15V-33c.05-.1.05-.1,0-.15s-.1-.15-.15-.15c-.05-.1-.1-.15-.1-.25-.05-.2-.05-.2-.25-.25-.1,0-.25.05-.3-.1-.05-.05-.1-.1-.15-.1-.1,0-.2,0-.2-.1,0-.15-.1-.15-.2-.2a1.1,1.1,0,0,0-.4-.05.428.428,0,0,1-.45-.15c0-.05-.05-.05-.1-.1-.2-.05-.35-.2-.6-.2a.379.379,0,0,1-.2-.1.108.108,0,0,0-.1-.1c-.15.05-.35-.05-.55-.05a1.243,1.243,0,0,1-.4-.05h-.25a2.072,2.072,0,0,1-.8.1.927.927,0,0,0-.35.1l-.5.15c-.05.05-.15.05-.2.1-.15.1-.15.2-.05.3.05.05.1.1.1.15a.375.375,0,0,0,.05.25.184.184,0,0,1,.05.15,6.051,6.051,0,0,1-.05.95.155.155,0,0,0-.05.1c0,.45-.05.85-.05,1.3V-30a4.4,4.4,0,0,1,.1.85v.3c0,.2.1.3.1.5.2,0,.05.15.1.2a.184.184,0,0,1,.05.15c0,.05.05.05.1.05.05-.05.1-.1.05.05a.049.049,0,0,0,.05.05c.3.2.6.55,1.05.55,0,.05.05.05.1.05a.861.861,0,0,0,.6.1c.05,0,.1.05.05.1a.049.049,0,0,0,.05.05c.1-.05.15,0,.25.05.1,0,.2-.05.25.05A2.51,2.51,0,0,1,26.6-26.8Zm2.55-5.15c-.05,0-.1-.05-.15-.05-.1-.05,0-.1,0-.15-.05-.05,0-.1.05-.15a.049.049,0,0,1,.05.05c.05.1.15.15.15.25C29.25-31.95,29.2-31.9,29.15-31.95Zm-.4,1.25a.049.049,0,0,1-.05-.05c0-.05.05-.05.1-.1a.049.049,0,0,1,.05.05C28.85-30.7,28.8-30.7,28.75-30.7Zm.4.9c-.05-.15-.2-.15-.3-.2a.878.878,0,0,1-.25-.2l-.05-.05c.05-.05.05-.2.15-.25.15.05.15.15.15.3,0,.05,0,.1.05.05a1.384,1.384,0,0,1,.45-.05v.05c-.05.1.05.15,0,.2,0,.05-.1.05-.1.15Zm-.7.4c-.1-.2.1-.25.2-.3.1-.1.2-.05.3,0a2.166,2.166,0,0,1,.05.25h-.1c-.15-.1-.3,0-.4.05ZM27.1-1a.634.634,0,0,1,.3-.05.711.711,0,0,0,.3-.1c.1-.05.2.05.3,0a4.3,4.3,0,0,0,1.35-.45c.1-.1.2-.2.3-.2l.1-.1c.1-.2.3-.3.4-.45.15-.15.35-.15.45-.3,0-.05.05-.05.1-.05.2-.05.3-.3.5-.4.05-.05.05-.15.1-.2,0-.1.05-.2.15-.2a.69.69,0,0,0,.15-.2c.1-.3.45-.55.6-.85.05,0,.05,0,.1-.05a.632.632,0,0,0,.35-.5c0-.1.1-.15.15-.25,0-.05.05-.1.1-.2a.378.378,0,0,0,.15-.4.5.5,0,0,0,.05-.15c.05,0,.05-.05.1-.1.1-.15.15-.35.25-.5,0-.05,0-.05.05-.1.15-.1.15-.3.2-.45a.451.451,0,0,1,.05-.25.379.379,0,0,1,.1-.2.711.711,0,0,0,.1-.3c-.05-.1.1-.15.1-.2v-.05a.22.22,0,0,1,.05-.25c.05-.1.15-.2.05-.35l.05-.05.1-.15c.1-.15.1-.3.2-.45a.4.4,0,0,1,.15-.45A.049.049,0,0,0,34.7-10c-.1-.2.05-.35.1-.5.05-.05.1-.05.1-.1a.492.492,0,0,1,.15-.4c.05-.1.1-.25,0-.35A.049.049,0,0,1,35-11.4a.319.319,0,0,0,0-.3c-.05-.1.05-.15,0-.25a.314.314,0,0,1,.1-.4c.05,0,.05-.05.05-.1.05-.15-.05-.3-.15-.45.1-.05.15,0,.2,0a.878.878,0,0,1,.25-.2.184.184,0,0,0,.05-.15c-.1-.15,0-.15.1-.15.05,0,.1-.05.05-.1a.184.184,0,0,1,.05-.15c.1-.1.05-.15,0-.2l-.1-.1a.548.548,0,0,1,0-.4c.05-.1.1-.1.15-.2a.26.26,0,0,0,.1-.2c0-.1,0-.25.1-.3.05,0,.05,0,.05-.05s-.05-.1-.05-.15.1-.1.05-.2a.069.069,0,0,0,0-.1.321.321,0,0,0-.25-.25c-.1-.05-.15-.1-.25-.05-.05.05-.05.05-.05,0-.05-.1-.15-.1-.25-.15-.05-.05-.1,0-.2.05h-.05a.16.16,0,0,0-.15-.15.389.389,0,0,0-.15.35.3.3,0,0,1-.05.2,2.126,2.126,0,0,0-.1.55c.05.05,0,.1,0,.15a.536.536,0,0,0-.05.55c.1.1.05.25-.15.3a.459.459,0,0,0-.2.3v.15c0,.05.05.05.1.05.05.05.1.05.05.1,0,.1.05.15.1.15.05.05.1.05.1,0,.1-.05.15-.2.25-.25.05-.05-.05-.15,0-.2a.175.175,0,0,0-.05-.1c-.05-.1.05-.2.05-.3,0-.05.1-.05.15-.05a.6.6,0,0,0,.25-.25c.1.1,0,.2,0,.3v.3a.845.845,0,0,1-.1.25v.05a.231.231,0,0,1-.15.25.184.184,0,0,0-.05.15c.05.05.1.1.05.15,0,.1-.05.15-.05.3.05.05,0,.15,0,.25s-.05.15-.1.15l-.15.15c0-.15,0-.15-.15-.2a.133.133,0,0,1-.15-.15v-.1c0-.1-.05-.1-.15-.1-.1.05-.25.05-.3.2,0,.05-.05.1-.1.2,0,.1-.05.15-.15.2a.379.379,0,0,0-.1.2v.35c.05.05.05.1,0,.2,0,.1-.05.15-.1.25a.242.242,0,0,0,0,.35c.05.1,0,.15.05.25.1.15-.1.1-.15.2-.1.15-.1.25,0,.35,0,.1-.05.2.05.2s0-.1.05-.15a.175.175,0,0,0,.1-.05c.05-.05.15-.15.1-.2-.1-.15-.05-.25-.05-.4a.155.155,0,0,1,.05-.1c.1-.05.25-.2.4-.1l.05-.05c0-.1,0-.15.1-.15a.133.133,0,0,1,.15.15.378.378,0,0,1-.05.2,1.46,1.46,0,0,0-.1.45c0,.05.05.05,0,.1l-.2-.05c-.1.05-.05.15-.1.2l-.15.1c0,.1-.1.15,0,.25a.184.184,0,0,1-.05.15,1.253,1.253,0,0,0-.35.2c0-.15.1-.25,0-.4-.1.1-.25.05-.35.1-.1.1-.1.25-.2.35a.175.175,0,0,1-.05.1c.1.15-.1.2-.1.3-.25-.05-.3.25-.5.3-.1.25-.3.45-.25.8v.05c.05,0,.05.1.1.05a.094.094,0,0,1,.15,0c.05.05.1.1.2.05.05-.05.15-.05.2-.15,0-.15.15-.2.25-.3a.049.049,0,0,1,.05-.05c.05.05.1.05.05.1v.25l.05.05c.05,0,.1,0,.1-.05s.05-.1.1-.05.1.05.1.15c-.05.1-.2.25-.3.2a.243.243,0,0,0-.3.15c-.05.1-.2.2-.1.35v.1a.512.512,0,0,1-.25.3c-.05,0-.1-.1-.2-.1-.05,0-.1-.05-.2,0-.2-.2-.35-.05-.5.1l-.1.15c-.05.05-.05.1-.05.2a.69.69,0,0,1-.15.2c-.1.05-.15.05-.25-.05-.05.1-.25.1-.25.2,0,.05,0,.1-.05.1-.15-.05-.25,0-.25.15-.05.05-.05.1-.1.1a.367.367,0,0,0-.1.3v.1c-.2.25-.25.6-.5.85,0,.05-.05.1-.05.15,0,.15-.05.25-.2.25-.1,0-.2.15-.15.2s.05.2.2.25c.15,0,.1.3,0,.35a1.589,1.589,0,0,1-.45.15c-.15,0-.25,0-.25.15,0,.05-.05.05-.1.05s-.1,0-.1-.05c.05-.1-.05-.15-.1-.25-.05.05-.05.15-.15.1-.15-.05-.2.05-.25.15a.108.108,0,0,1-.1.1l-.15-.15c-.1,0-.1-.05-.05-.15a.9.9,0,0,0-.1-.5v-.05c0-.1-.05-.1-.1-.15,0-.1-.15-.1-.15-.15a.451.451,0,0,0,.05-.25.184.184,0,0,0,.05-.15,1.7,1.7,0,0,0-.1-.7c0-.15-.05-.3.1-.4.05,0,.1-.05.1-.15,0-.05,0-.15.1-.15,0-.1.15-.15,0-.25,0-.1-.1-.25.05-.35.05-.05-.05-.15,0-.2s0-.1-.15-.05c-.1,0-.15-.05-.2-.15a.22.22,0,0,1,.05-.25c.05,0,.1-.05.1,0,0,.15.1.15.2.15,0-.15.15-.2.25-.35,0-.05.05-.1,0-.2v-.2a.451.451,0,0,0,.05-.25c0-.1-.05-.2.1-.25a.188.188,0,0,0,.05-.3A.4.4,0,0,1,28-8.5a.411.411,0,0,0-.05-.35A.372.372,0,0,1,28-9.3a1.589,1.589,0,0,0,.15-.45c0-.05.05-.1.05-.15a1.294,1.294,0,0,0,.35-.55.411.411,0,0,0-.05-.35c0-.05-.25-.1-.3-.1a.367.367,0,0,0-.1.3.378.378,0,0,0,.05.2.155.155,0,0,1-.05.1c-.1.05-.15.15-.2.2-.1.15-.1.15-.2.05a.227.227,0,0,1,0-.25c0-.05.05-.05.05-.1a.356.356,0,0,0-.3.15c-.2.1-.45,0-.45-.2a.382.382,0,0,1,.1-.25c.1-.1.15,0,.2.05h.05v-.1c.05-.2.05-.2-.1-.25-.15,0-.15,0-.15-.2.05-.05.05-.05,0-.1a.314.314,0,0,1-.1-.4.3.3,0,0,1,.15-.3c.15-.05.15-.2.1-.35a.184.184,0,0,1,.05-.15.319.319,0,0,0,0-.3,2.026,2.026,0,0,1,0-.55c.1.05.1.15.15.25.05.05.15.05.2.1-.05.1-.2.2-.05.35-.1.1-.05.2.05.3,0,.05-.05.15.05.15.05,0,.05,0,.05.05-.05.05-.1.1-.1.15-.05.1-.15.2-.05.35a.706.706,0,0,1-.05.45.315.315,0,0,0,0,.3c0,.05.05.1.1.05h.15c.1.05.2,0,.2-.1.05-.1.15-.15.2-.25,0-.15.15-.1.25-.2a.69.69,0,0,0,.15-.2c.05-.1.05-.2.15-.3.1-.15.05-.3-.1-.45-.05-.05-.15-.05-.2-.1.1-.05.1-.15.15-.25s0-.2-.1-.2c-.05,0-.05-.05-.05-.1l.3-.3v.25c0,.05.05.05.1.05.05-.05.1-.1.05-.2s0-.15.05-.25c0-.1.1-.05.15-.05a.175.175,0,0,0,.05-.1c-.05-.1,0-.25,0-.35.05-.1-.05-.15-.1-.2s-.05,0-.1.05c-.05,0-.05-.05-.1-.05-.1.05-.1,0-.05-.05,0-.05.1-.1.05-.15-.1-.15-.05-.2.05-.3,0-.05.05-.1.05-.15a1.048,1.048,0,0,1,.2-.55c.05-.1.05-.15.15-.2a.094.094,0,0,0,0-.15c-.15-.05-.2-.2-.3-.35,0-.05-.05-.2.05-.25s.1-.15.15-.2a.9.9,0,0,0,.05-.8c-.05-.05-.05-.05,0-.1a.564.564,0,0,0,.05-.4v-.1c.05-.05.05-.1-.05-.15a.124.124,0,0,1-.05-.2c.05-.1.1-.15,0-.2-.05,0-.05-.05,0-.1.05,0,.05-.05.05-.1-.05-.15,0-.3-.05-.45a.223.223,0,0,1,0-.25.592.592,0,0,0-.05-.4v-.1a.439.439,0,0,0,.05-.35v-.15a.184.184,0,0,0-.05-.15,4.7,4.7,0,0,0-.6-1.1l-.15-.15a2.348,2.348,0,0,0-.45-.3,1.776,1.776,0,0,1-.45-.2.26.26,0,0,0-.2-.1c-.05,0-.1,0-.1-.05a.454.454,0,0,0-.35-.15c-.05.05-.1-.1-.15.05-.05.05-.15-.05-.2-.1-.05,0-.1-.05-.15-.1-.1-.1-.15-.15-.25-.15-.2.05-.4-.05-.6-.05a.049.049,0,0,1-.05-.05A.184.184,0,0,0,25.3-23c-.1.05-.2,0-.35-.05a1.7,1.7,0,0,0-.5-.05h-.1c-.05-.15-.15-.1-.25-.1a2.719,2.719,0,0,0-.9,0,1.372,1.372,0,0,0-.65.1.5.5,0,0,0-.25.2c0,.1-.05.25.05.35.05.05.05.15.1.2a1.272,1.272,0,0,1,.1.35v.25c.05.15-.05.35,0,.5.05.05,0,.15.05.2a.094.094,0,0,0,0,.15c.05.1.15.2.1.25a1.056,1.056,0,0,0-.2.5.375.375,0,0,0,.05.25.223.223,0,0,1,0,.25.478.478,0,0,0,0,.45c0,.05.05.1,0,.15a.822.822,0,0,0-.1.5c0,.05-.05.15,0,.2,0,.05,0,.1-.05.1-.1.05-.05.15-.05.2a1.7,1.7,0,0,1,.05.5c0,.1-.05.15-.1.25,0,.1.1.2.05.3-.05.05,0,.1-.05.15.1,0,.05.05.1.15a.155.155,0,0,0,.05.1.094.094,0,0,1,0,.15.711.711,0,0,0-.1.3c0,.1-.05.15.05.15.05.05,0,.05,0,.05a.184.184,0,0,0-.05.15v.3c0,.1-.05.1-.15.15a.47.47,0,0,1,.05.45c-.05.05-.05.1-.05.2a.3.3,0,0,0,.05.2.094.094,0,0,1,0,.15c-.05.05-.1.15,0,.2.05.05.05.2,0,.2-.15.1-.1.2-.1.3a.851.851,0,0,1-.05.35v.15c.1.1,0,.25,0,.35v.55a1.541,1.541,0,0,0-.05.5v.5c0,.1-.1.15-.1.25s.05.2.05.3-.1.2-.05.3.05.2-.05.25v.05c.1.1.05.25.05.4v1.1a1.243,1.243,0,0,1-.05.4v.1a.544.544,0,0,1,.05.25,4.4,4.4,0,0,0,.1.85c.1.1,0,.25.05.35.1.1.05.25.05.35.05.15,0,.3.1.45.05.15-.05.3,0,.45a5.522,5.522,0,0,1,.15.8,4.5,4.5,0,0,1,.15.8,6.509,6.509,0,0,0,.4.85c.1.15.25.25.35.4a.788.788,0,0,0,.35.35c.05.1.15.1.15.15a.268.268,0,0,0,.2.15c.05,0,.1.05.15.1a2.835,2.835,0,0,0,.65.4.972.972,0,0,0,.65.15.851.851,0,0,1,.35.05c.1.1.25.1.4.15a.864.864,0,0,0,.5-.05c.1-.05.2-.05.25.05A.184.184,0,0,0,27.1-1Zm.85-15.2c-.1-.05-.15-.2-.1-.2.2-.15.15-.3.15-.45v-.05a.049.049,0,0,1,.05-.05.748.748,0,0,1,.05.65C28.05-16.25,28.05-16.15,27.95-16.2Zm-.4,1.1a.637.637,0,0,1-.25-.55c0-.15.05-.25.05-.4a.094.094,0,0,1,.15,0c0,.05.05.1.05.15,0,.1.05.15.05.2.05.05.05.05.1.05.1-.05.15,0,.15.05a.449.449,0,0,1-.1.45C27.7-15.05,27.65-15.05,27.55-15.1Zm-.1,1a.309.309,0,0,1-.1-.35c0-.05,0-.2.05-.25.1.05.15.15.25.15.1.05.15.1.15.2a.049.049,0,0,0-.05.05c-.05,0-.05,0-.05-.05-.1-.05-.2-.05-.2.05v.1C27.5-14.15,27.5-14.1,27.45-14.1Zm-.65,2.4c-.15.05-.15-.05-.25-.1.05,0,.1-.15.15-.15Zm7.5.55a.108.108,0,0,0-.1-.1c-.15,0-.1-.1-.1-.2a.236.236,0,0,0,.3.05c0-.05.05-.05.05,0a.094.094,0,0,1,0,.15C34.4-11.2,34.4-11.1,34.3-11.15Zm-6.9,3.2a.432.432,0,0,1-.15-.3.184.184,0,0,0-.05-.15c0-.1-.05-.15.05-.2-.05-.15.1-.15.15-.25-.1-.05-.15-.1-.15-.2s-.05-.25.15-.3c.05,0,.1.1.1.2v.05c.05.1,0,.15-.1.2v.05c.1.05,0,.2.15.2.05.05.05.15.15.2.05,0,.05.05,0,.1a.175.175,0,0,0-.05.1A.512.512,0,0,0,27.4-7.95Zm.05,1.05a.049.049,0,0,1-.05-.05v-.1c.05.05.1.05.1.1S27.5-6.9,27.45-6.9Zm.7,3.7h.05c.1-.05.2-.05.25-.1s0-.1.05,0a.049.049,0,0,0,.05.05l.2-.05a.049.049,0,0,0,.05-.05l-.05-.05-.45-.15c-.05,0-.05-.05-.1,0A.211.211,0,0,0,28.15-3.2Zm4.6,8.3c.15,0,.2-.1.25-.2.1-.15.15-.15.25,0s.15.15.25,0a.184.184,0,0,1,.05-.15c0-.05.1-.15.15-.2a1.046,1.046,0,0,1,.3-.2.69.69,0,0,0,.2-.15c.05-.1.05-.25.1-.3.1-.1.1-.15.1-.2a.953.953,0,0,1,.1-.65c.05-.1.05-.15.1-.15a.26.26,0,0,0,.2-.1.9.9,0,0,1,.6-.6.155.155,0,0,1,.1-.05c.1-.15.25-.25.3-.45,0-.1.15-.15.15-.25,0-.05.05-.05.1-.1a1.385,1.385,0,0,1,.65-.05c.05.1.1,0,.15,0-.05-.1.05-.15.15-.15h.05c0,.05,0,.05-.05.05,0,.1-.1.1-.15.1a.427.427,0,0,1-.15.3c-.05.1-.15.15-.2.2-.15.2-.15.2-.35.05,0,.1-.1.15-.15.2a.536.536,0,0,0-.05.6.1.1,0,0,0,.2,0c.05-.1.2-.1.25-.2s.15-.1.25-.15a.845.845,0,0,1-.1-.25l.1-.1c.15,0,.2-.1.25-.2L37,1.7c.05,0,.1.1.15,0,.05-.05.15-.05.25-.1a.229.229,0,0,0,.2-.25v-.1c.15-.3.15-.6.4-.85,0,0,.05,0,0-.05-.2-.2-.2-.2-.4,0-.05,0-.05.05-.1.05-.1,0-.1.1-.05.15.1.15,0,.2-.05.3q-.15.225-.3,0C37.05.8,36.95.7,37,.6c.1-.1.1-.2.15-.3,0-.1.05-.1.1-.1A.133.133,0,0,0,37.4.05c.1-.25.3-.35.5-.5.1-.05.15-.05.2-.15.05-.05.1-.05.2-.05a1.053,1.053,0,0,0-.25.65c.15,0,.3.05.45-.05l.05.05c.05.1.15.05.2,0a.584.584,0,0,0,.3-.3V-.7a.378.378,0,0,1-.2.05c-.05-.05-.05-.15-.1-.2,0-.1-.1-.15-.1-.2-.05-.05-.05-.1,0-.1a.319.319,0,0,0,0-.3c-.05-.2,0-.25.15-.25s.3,0,.35-.1c.05-.05.05-.05.1,0a.741.741,0,0,1,.35.05c-.05.2-.2.35-.2.55h.05c.1.1.15.1.2,0a.184.184,0,0,1,.15-.05c.25-.05.25-.05.25-.3V-1.6c-.1-.1-.05-.15,0-.2a.672.672,0,0,1,.3-.35.539.539,0,0,1,.1-.4V-2.6c.1-.15.2-.2.35-.15a.26.26,0,0,0,.2-.1.3.3,0,0,1,.05-.2.049.049,0,0,0,.05-.05c-.1-.15-.05-.2.05-.25.15-.1.2-.3.35-.4.05,0,.1-.05.1-.15.05-.2.25-.25.35-.4a.367.367,0,0,1,.3-.1.371.371,0,0,0,.3-.3v-.05a.184.184,0,0,1,.15-.05c0,.05.05.05,0,.1,0,.05-.05.1,0,.2.1.1.05.35.25.45L43-4c-.05.1.05.15.1.2.05,0,.15.05.15.1a.382.382,0,0,0,.1.25.108.108,0,0,1,.1.1,1.008,1.008,0,0,1,.15.55c-.05.1,0,.15.1.15.1.05.15.1.15.2A.133.133,0,0,0,44-2.3c.05,0,.1,0,.1.05.05,0,.15.3.1.35l-.05.05H44.1c-.1,0-.15.05-.1.15,0,.05,0,.05.05.1a.455.455,0,0,1,.2.4c0,.1,0,.2.1.25a.332.332,0,0,1,.25.2c.05.1.1.1.2.15a.377.377,0,0,1,.3.35.642.642,0,0,0,.2.5.049.049,0,0,1,.05.05c.1.15.2.35.4.4a1.2,1.2,0,0,1,.4.3c0,.1.1.15.2.15s.15.05.2.15c0,.1.15.2.2.2.15-.1.2,0,.3.05.1,0,.15.1.2.1a.762.762,0,0,1,.55.3c.05.05.25.1.3,0,.1-.15.15-.1.25-.05.05,0,.15,0,.15-.1a2.774,2.774,0,0,1,.4.3c.1.1.15.1.25.05a.315.315,0,0,1,.3,0,.955.955,0,0,0,.4.15.634.634,0,0,1,.3.05c.1-.15.2-.05.3-.1s.2-.05.3-.1c.2-.15.2-.2.45-.1L51.25,2c.05,0,.05,0,.1.05a.175.175,0,0,0,.05.1l.15-.1c0-.1.1-.15.05-.25s-.05-.2.1-.2a.175.175,0,0,0,.05-.1c0-.05-.05-.1,0-.15.1,0,.15.1.2.15.1.1.15.1.25.05a.231.231,0,0,0,.15-.25c0-.05-.05-.1.05-.15.05.05.15.05.2.15.1.05.15.05.2-.05.1-.25.35-.35.6-.5.15-.15.3-.25.35-.4a.108.108,0,0,1,.1-.1.427.427,0,0,0,.3-.15l.55-.6a3.746,3.746,0,0,0,.75-1c.05-.1.15-.15.2-.25a4.531,4.531,0,0,1,.55-.8c0-.05.05-.1.05-.15,0-.1.1-.05.15-.1,0-.05.1-.15.15-.2a2.748,2.748,0,0,1,.35-.45c.05,0,.05-.05.05-.1A.7.7,0,0,1,57.1-4a3.058,3.058,0,0,0,.25-.6,3.074,3.074,0,0,1,.15-.55c0-.05.05-.1.1-.15.05,0,.05-.05.05-.1a1.243,1.243,0,0,1,.05-.4L57.65-6c-.05-.05-.1-.05-.1-.15.05-.05.1-.1.15-.1a1.012,1.012,0,0,0,.4-.7.175.175,0,0,1,.05-.1.3.3,0,0,0-.05-.2c-.05-.05,0-.1,0-.2l.15-.3c.15-.35.1-.75.3-1.15a1.076,1.076,0,0,1,0-.4.669.669,0,0,1,.05-.45.845.845,0,0,0,.15-.5,4.293,4.293,0,0,0,.15-.85v-.05a1.9,1.9,0,0,0,.15-.5.455.455,0,0,1,.2-.4c.05-.1.05-.2.1-.25s.05-.05,0-.1c-.15-.2-.05-.35.05-.5.1-.1.15-.25.3-.35.05-.05.1-.1.05-.2,0-.1,0-.15.1-.2s.1-.05.05-.15v-.15c-.1-.05-.05-.2-.2-.3-.05,0-.05-.1.05-.15a.69.69,0,0,1,.2-.15.152.152,0,0,0,0-.2c-.05,0-.05-.05-.1-.05-.1,0-.1-.05-.15-.1a.3.3,0,0,1-.05-.2.529.529,0,0,0-.3-.35c-.1-.05-.2-.05-.3-.1-.05-.05-.05,0-.1,0-.1.05-.1.1-.1.2a.439.439,0,0,0,.05.35c.05.05,0,.1-.05.15-.1,0-.15,0-.15-.1a.227.227,0,0,1,0-.25.069.069,0,0,0,0-.1h-.1c-.05.05-.1.1-.2.05l-.15.15c-.05.05-.1.1-.05.15.05.1,0,.15,0,.25a.4.4,0,0,1-.05.4.69.69,0,0,0-.15.2c-.05.1-.1.2,0,.3,0,.15.05.1.15.05.05,0,.1-.05.15-.05.1,0,.15.05.1.1a.486.486,0,0,0,.05.45c.05,0,.05,0,.05.05a1.076,1.076,0,0,0,0,.4c0,.25-.1.3-.3.4-.05,0-.05.05-.1.05a1.077,1.077,0,0,0-.1.55c0,.05.05.05,0,.1,0,.1-.05.05-.1.05l-.1.1c0,.05,0,.1-.1.15-.05-.25-.1-.25-.3-.15,0,.05.05.05.05.1.1.15.05.15-.05.3l-.15.1c-.05.1-.15.15-.15.25a1.177,1.177,0,0,1-.1.4.319.319,0,0,0,0,.3c.05.05.1.05.1.15,0,.05.05.05.1,0,.1,0,.1-.1.15-.15.05-.15.1-.15.2-.05a.5.5,0,0,0,.2.25c-.1.1-.15.2-.2.25-.15.05-.2.15-.3.3a.049.049,0,0,0-.05-.05c-.1-.15-.2-.15-.25,0a.155.155,0,0,1-.05.1.448.448,0,0,0,.05.55c0,.1.1.1.05.25l.05.05c.25.1.25.1.2.4V-8c0,.1-.05.15-.15.2a.8.8,0,0,0-.45.45c-.1,0-.05-.1-.1-.15s.05-.05.05-.1l.05-.05a.822.822,0,0,1,.1-.5.094.094,0,0,0,0-.15c-.1-.1-.2-.05-.25.05a.175.175,0,0,1-.05.1c-.05.2-.2.3-.25.45s-.05.3-.2.4v.1a.475.475,0,0,1-.2.5.377.377,0,0,0-.2.35c0,.05-.05.1-.1.15a.972.972,0,0,0-.15.65.243.243,0,0,1-.15.3.766.766,0,0,0-.25.35c0,.05.05.1,0,.15A4.4,4.4,0,0,0,54.7-4a.817.817,0,0,0,0,.35.26.26,0,0,1-.1.2c-.05.05-.1.1-.1.15a.049.049,0,0,0,.05.05c.05.05.1.05.1.15-.05.05-.05.1-.15.1a1.177,1.177,0,0,0-.4.1.26.26,0,0,0-.2.1,1.046,1.046,0,0,0-.2.3.6.6,0,0,1-.25.25c-.15.15-.35.3-.3.55,0,.05-.05.05-.05.1-.15,0-.2.25-.4.15-.05,0-.05,0-.1.05s-.05.1-.05.2c0,.15,0,.15-.15.1q-.075,0-.15-.15L52.1-1.4c-.15-.1-.15-.1-.2.05-.1.2-.15.2-.3.2-.05,0-.1-.05-.15-.05-.35-.15-.4-.2-.3-.55a.914.914,0,0,0-.8-.15c-.15,0-.35.05-.45-.15a.049.049,0,0,0-.05-.05.21.21,0,0,1-.15-.3c0-.05-.05-.15-.1-.15a.3.3,0,0,1-.2-.05c-.05,0-.05,0-.1.05a.152.152,0,0,0,0,.2l.15.1c.05.05.1.25.05.25-.1.1-.1.15-.05.2s.05.05.05.1,0,.1-.05.1a.175.175,0,0,1-.1-.05c0-.2-.1-.25-.2-.35a.049.049,0,0,1-.05-.05,2.242,2.242,0,0,1-.05-.55.422.422,0,0,1,.1-.35.175.175,0,0,0,.05-.1c.05,0,.05-.1,0-.1-.15,0-.15-.1-.15-.2a.38.38,0,0,0-.3-.4.1.1,0,0,1,0-.2.184.184,0,0,0,.05-.15c0-.05-.05-.1-.05-.15.15-.05.2.05.2.15,0,.05.05.05.05.1a.806.806,0,0,1,.2.35c.05.05.05.15.1.2a.184.184,0,0,1,.05.15c0,.05-.05.15,0,.2h.2c.05,0,.1-.05.15-.05a.184.184,0,0,1,.15-.05c.2,0,.3,0,.4-.2v-.1q0-.075-.15-.15c-.05,0-.05,0-.05-.05a.425.425,0,0,0-.35-.35c-.05,0-.1-.1-.1-.15.1-.15.05-.3.1-.45.1-.1,0-.2-.05-.3L49.1-5.2c-.1,0-.1.1-.15.1H48.9c-.15-.05-.2.05-.25.15-.15.15-.15.15.05.2a.049.049,0,0,0,.05.05c.1.05.15.25.05.3l-.05.05c-.05,0-.05-.1-.1-.05a.049.049,0,0,0-.05.05.094.094,0,0,1-.15,0,.711.711,0,0,0-.3-.1c-.1,0-.1-.1-.15-.15-.05-.1.05-.1.05-.15.05,0,.05-.05,0-.1s-.1-.1-.1-.15A.634.634,0,0,1,48-5.3c0-.1.1-.15.2-.15.05-.05.1-.1.15,0,.05.05.1.05.2.05s.2-.05.3.05A.184.184,0,0,0,49-5.4c.05-.05.05-.05.1,0,.05,0,.05-.05.1-.05,0-.1,0-.2-.1-.25l-.15-.15c-.2-.1-.2-.1-.05-.25l.1-.1c.05-.1.05-.15-.05-.2h-.1a.544.544,0,0,0-.25-.05c-.1-.05-.15-.1-.05-.2l.05-.05c.1-.05.05-.15.05-.2-.15-.15-.05-.35-.15-.5.1-.15,0-.25-.15-.3-.05-.05-.05-.1-.1-.1-.05-.1-.1-.05-.2,0-.05.05,0,.15-.05.15a.16.16,0,0,0-.15.15c-.05.1.05.1.1.15s.05.1,0,.1c0,.05-.05.05-.1.05a.69.69,0,0,0-.15-.2.523.523,0,0,1,.1-.55c0-.05.05-.05.1-.05.05.05.05.05.1,0,0-.05.05-.1,0-.15-.05,0-.05-.05-.1-.05-.15-.15-.15-.2,0-.35,0-.05,0-.05.05-.1.05,0,.05-.05,0-.1-.1-.1-.2-.3-.4-.35a.26.26,0,0,1-.1-.2.367.367,0,0,1,.1-.3c.1-.15.25-.25.3-.45a.3.3,0,0,1,.05-.2c0-.1,0-.2.15-.2a.69.69,0,0,0,.2-.15.5.5,0,0,1,.2-.25.437.437,0,0,0,.3-.45v-.05a3.04,3.04,0,0,1,.45-.9.506.506,0,0,0,.2-.35c0-.05.05-.1.1-.15s.05,0,.1.05a.184.184,0,0,0,.15-.05l.1-.15a.529.529,0,0,1,.3-.35.672.672,0,0,0,.3-.35.423.423,0,0,1,.1-.3c.1-.05.1-.1.1-.15a.882.882,0,0,1,.4-.45l.45-.45.1-.15a.667.667,0,0,1,.25-.3c.15-.15.3-.25.3-.5-.05-.1,0-.15.1-.15a.312.312,0,0,0,.25-.15c.05-.05-.05-.1,0-.15.1-.1.15-.25.3-.3q.075,0,.15-.15c.05-.05.05-.15.15-.2a.455.455,0,0,0,.2-.4,1.068,1.068,0,0,1,.4-.6.728.728,0,0,0,.3-.45,1.363,1.363,0,0,1,.3-.6l.1-.15a3.986,3.986,0,0,0,.15-.75.223.223,0,0,0,0-.25.319.319,0,0,1,0-.3,1.177,1.177,0,0,0-.1-.4v-.15a.723.723,0,0,0-.1-.35c-.05-.2-.15-.35-.2-.55a1.075,1.075,0,0,0-.45-.6.356.356,0,0,1-.15-.3.967.967,0,0,0-.25-.45,1.5,1.5,0,0,1-.3-.55c-.05-.1-.1-.2-.2-.2a.512.512,0,0,1-.3-.25l-.15-.15a10.474,10.474,0,0,1-.85-.7.517.517,0,0,0-.65-.05,4.28,4.28,0,0,1-.25,1.15.175.175,0,0,1-.05.1,3.361,3.361,0,0,0-.3.6c0,.05-.05.05-.05.1a4.574,4.574,0,0,0-.45.85l-.4.75a2.214,2.214,0,0,1-.6.75,5.3,5.3,0,0,0-.5.6c-.25.25-.4.5-.65.75a.445.445,0,0,0-.25.4c0,.05-.05.05-.1.1-.2.05-.25.2-.35.4-.05.1-.1.2-.25.2-.05,0-.1,0-.1.05,0,.1-.1.15-.15.2-.1.05-.1.05-.1.15,0,.15-.15.2-.2.3s-.1.25-.2.3a.108.108,0,0,0-.1.1c-.05.05-.05.05-.1.05a.183.183,0,0,0-.2.2c0,.1-.05.15-.1.15-.2.1-.15.35-.2.5,0,.1,0,.15-.1.15a.184.184,0,0,0-.05.15c.05.1,0,.15-.05.15-.1-.05-.2,0-.25-.1-.05,0-.05-.05-.15-.05,0,.05-.05.05-.05.1a.851.851,0,0,1-.05.35c-.05.1-.15.15-.2.25a.184.184,0,0,0-.05.15c-.05.05-.05.1-.1.1-.15,0-.25.15-.35.25a.888.888,0,0,1-.2-.5l-.1-.25c-.15-.15-.3-.3-.25-.5a.425.425,0,0,0-.15-.25c-.15-.05-.15-.2-.2-.35a5.556,5.556,0,0,0-.35-.8,1.94,1.94,0,0,1-.3-.55,2.364,2.364,0,0,0-.35-.6c-.1-.1-.1-.25-.15-.35a1.664,1.664,0,0,1-.3-.5,3.786,3.786,0,0,0-.45-.9,2.835,2.835,0,0,0-.4-.65,1.057,1.057,0,0,0-.7-.6,4.926,4.926,0,0,0-.85-.1h-.3c-.2-.05-.4-.1-.55.05h-.1a.634.634,0,0,0-.3.05,1.272,1.272,0,0,0-.35.1,3.921,3.921,0,0,0-1.2.45c-.05,0-.1.05-.15.05a1.55,1.55,0,0,0-.65.3,3.007,3.007,0,0,1-.65.45.672.672,0,0,0-.3.35l-.3.45a.33.33,0,0,0,.05.55c.15.15.35.3.4.5a.728.728,0,0,0,.3.45.806.806,0,0,1,.2.35c0,.1.05.15.1.25.05.05.1.1.1.15s.05.15.1.15a.568.568,0,0,1,.15.4.806.806,0,0,0,.2.35,2.694,2.694,0,0,1,.35.65,6.405,6.405,0,0,0,.55,1,1.564,1.564,0,0,1,.25.5.88.88,0,0,0,.3.65.5.5,0,0,1,.2.25c0,.15.05.2.2.2.1,0,.15.1.1.2a.155.155,0,0,1-.05.1c-.05.1-.05.15.05.2.15.05.2.1.2.2.1.25.35.4.45.6v.05c.1,0,.1.05.1.15-.05.1.05.2.1.25.05.1.2.1.25.2a.367.367,0,0,0,.1.3.26.26,0,0,1,.1.2.367.367,0,0,0,.1.3,2.791,2.791,0,0,1,.25.4l.3.4a.242.242,0,0,1,0,.35,1.418,1.418,0,0,1-.4.55,2.22,2.22,0,0,0-.4.55.669.669,0,0,1-.35.4l-.15.2a7.629,7.629,0,0,0-.55.8c-.1.15-.25.25-.3.4L36.9-5.35c-.05.05-.1.15-.15.2l-.15.4a1.253,1.253,0,0,0-.2.35,1.046,1.046,0,0,0-.2.3.108.108,0,0,1-.1.1.215.215,0,0,0-.2.2c0,.1-.2.2-.15.35l-.05.05c-.1,0-.1.05-.15.1a4.214,4.214,0,0,0-.3.7,1.093,1.093,0,0,0-.15.25c0,.15-.1.1-.15.15s-.1.1-.1.15a.175.175,0,0,1-.05.1,3.907,3.907,0,0,0-.55,1,1.5,1.5,0,0,1-.2.4A4.954,4.954,0,0,0,33.5.3a.806.806,0,0,1-.2.35.885.885,0,0,0-.25.4.711.711,0,0,0-.1.3,1.927,1.927,0,0,0-.3.9c-.1.1-.1.25-.25.3s-.15.05-.15.15c-.05.15-.1.3-.25.35s-.3.2-.25.35c0,.1-.05.15-.05.2-.15.1-.15.25-.35.35-.1.05-.05.25-.1.35,0,.05.05.15.1.15h.2c.1,0,.1-.05.1-.1a.108.108,0,0,0,.1-.1c.05.1,0,.2.15.2a.3.3,0,0,1,.05.2c.05.05-.05.05-.1.1s0,.1,0,.15c.1.05.15.1.25.1a.634.634,0,0,1,.3.05A.741.741,0,0,0,32.75,5.1Zm24.8-17.05c.1,0,.25,0,.25-.15a.536.536,0,0,0,.1-.3c0-.1-.1-.15-.1-.2l-.05-.05c-.05.1-.15.05-.2.05-.05.05-.1.1-.1.15-.05,0,0,.05.05.1.05,0,.05.1.05.15Zm-.05,1.4c0-.05-.05-.05-.05-.1.05-.05.05-.1.1-.1a.049.049,0,0,1,.05-.05.049.049,0,0,1,.05.05.184.184,0,0,0-.05.15C57.55-10.55,57.55-10.55,57.5-10.55ZM47.3-7.35c-.05,0-.05-.05-.05-.1s.05-.1-.05-.15c-.05-.05-.1-.1-.15,0-.1.05-.15.05-.15-.05-.05-.1-.1-.15-.1-.25v-.3c.2,0,.25.2.35.3.05.05.05.15.15.15.05,0,.15.25.15.3C47.4-7.4,47.35-7.35,47.3-7.35Zm9.05.75c-.1,0,0-.05-.05-.1a.379.379,0,0,0-.1-.2c0-.1,0-.15.05-.15,0-.05.05-.05.1,0,.1,0,.15.1.2.15,0,.1-.05.15-.1.25C56.4-6.6,56.4-6.6,56.35-6.6Zm-5.9,4.35c.1-.05.15-.1.15-.2v-.1c0-.2,0-.2-.05-.25-.1-.15-.25-.1-.4-.15-.05.15-.2.1-.3.15a.184.184,0,0,0-.05.15c.05.05.05.15.15.15.15,0,.25,0,.3.15A.2.2,0,0,0,50.45-2.25Zm.05,1.6L50.15-.8c-.05,0-.05-.05-.1-.1,0-.05-.05-.1-.05-.15s-.1-.15,0-.25c.05-.05.25.05.3.15a.9.9,0,0,0,.25.35l.05.05C50.55-.7,50.55-.65,50.5-.65Zm.25.45c-.1.05-.2.05-.25-.05s.05-.15.1-.2A1.093,1.093,0,0,0,50.75-.2ZM32.6,3.35c-.05-.15.05-.25.1-.35V2.7c.1-.1.2-.25.3-.35l.05-.05c.15.05.3.05.4.2.05.05.05.1,0,.1-.1.05-.15.1-.15.2,0,.05-.05.05-.1.05a.3.3,0,0,0-.2.05c-.1.05-.2.1-.2.25C32.8,3.25,32.7,3.3,32.6,3.35Zm2.4.7h.05c.05,0,.05,0,.1-.05a.6.6,0,0,0,.25-.25c.05-.05.1-.1.15-.1a.425.425,0,0,0,.25-.15.492.492,0,0,1,.15-.4V3c0-.05-.15-.1-.2-.1a.7.7,0,0,0-.5.55c-.05.2-.15.3-.15.5A.175.175,0,0,1,35,4Zm-2.85.15c-.05,0-.05-.05-.05-.1a.568.568,0,0,1,.15-.4c.05-.05.05-.05.1-.05.1.05.15.05.2.15a2.31,2.31,0,0,0-.35.35A.049.049,0,0,0,32.15,4.2Zm2.65.2h.15c.05.05.1,0,.1-.05a.175.175,0,0,0-.05-.1c-.05-.05,0-.15-.05-.15-.05-.05-.1-.05-.2-.05H34.7c-.1,0-.15.25-.1.3C34.65,4.45,34.7,4.45,34.8,4.4ZM75.2,1.65a.175.175,0,0,0,.1-.05c-.1-.15.05-.15.1-.1a1.428,1.428,0,0,0,.8-.05,2.916,2.916,0,0,0,.9-.4c.1-.1.2-.2.3-.1A.049.049,0,0,0,77.45.9c-.05-.05-.05-.05,0-.1s.1-.1.15-.05A.184.184,0,0,0,77.75.7c.3-.1.35-.15.55-.5,0-.05.05-.1.05-.05.15,0,.2-.1.25-.2.1-.1.15-.2.3-.25.1,0,.15-.1.2-.2a.184.184,0,0,1,.05-.15c0-.1.1-.1.15-.15a.155.155,0,0,1,.05-.1c.1-.2.15-.45.25-.65a2.247,2.247,0,0,1,.3-.6,1.235,1.235,0,0,0,.2-.45c.05-.1,0-.2.1-.25.15-.1.15-.3.25-.45.15-.15.15-.3.25-.45,0-.1.05-.25.05-.3a1.889,1.889,0,0,1,0-.75.184.184,0,0,1,.05-.15l.25-.45a2.29,2.29,0,0,0,.35-.7,2.2,2.2,0,0,1,.1-.5,5.953,5.953,0,0,1,.45-.75c.1-.15.2-.25.15-.4,0-.05.05-.05.05-.1.15-.1.25-.2.15-.35,0-.05.1-.1.05-.15-.05-.1.1-.2,0-.3s.1-.15.05-.25c0-.05,0-.1-.05-.1a.184.184,0,0,1,.05-.15.375.375,0,0,0,.05-.25v-.2c0-.05.05-.1,0-.15,0-.05.1-.1.1-.2a.184.184,0,0,1,.05-.15c-.1-.05-.05-.15,0-.2v-.1c.1-.25.1-.5.2-.7a1.772,1.772,0,0,0,.15-.55,3.661,3.661,0,0,1,.4-1.25c.1-.15.05-.25.1-.4-.15-.1-.05-.15,0-.25a.711.711,0,0,0,.1-.3c.05-.2.05-.45.1-.65a.942.942,0,0,0,.1-.4.3.3,0,0,1,.05-.2v-.15c-.05-.05,0-.1.05-.15a.247.247,0,0,0-.05-.35c-.1-.05-.15.05-.2,0-.15-.1-.3,0-.4,0-.1-.05-.1.05-.15.1-.05,0-.15-.1-.2,0s-.1.05-.15,0c-.05,0-.15,0-.15.05-.15.1-.4.1-.4.35l-.05.05a.543.543,0,0,0-.2.45.5.5,0,0,1-.05.15c.15.05.05.15.05.2,0,.2.05.45-.15.6-.1.05-.1.2-.1.3.05.1.05.1,0,.2a.108.108,0,0,0-.1.1c-.05.05-.05.1,0,.1.1.05.1.2.15.3.1.05,0,.1,0,.2,0,.05-.1,0-.1,0-.1-.05-.1,0-.15.05l-.05.2a.665.665,0,0,1-.15.4s-.05.05,0,.05c.05.1,0,.2,0,.25.05.05.05,0,.1,0,.15,0,.15,0,.1.2,0,.05-.05.15,0,.25s0,.2-.1.3c-.1-.1-.2-.15-.15-.25a.069.069,0,0,0,0-.1c-.05-.05-.1-.05-.1,0l-.15.1c.05.15-.1.2-.1.35,0,.1-.05.15-.1.15a.69.69,0,0,1-.15.2.539.539,0,0,0-.1.4c-.05.05,0,.1.05.15s0,.1.05.1a.24.24,0,0,0,.3-.1v-.05a1.141,1.141,0,0,1,.3-.6c0-.05.05-.1.1-.05v.1s-.05.1,0,.1c.15.05.1.15.15.25-.1-.05-.15-.05-.2.05l-.15.15c0,.1.1.15.15.25-.1.05-.2.05-.2.15a.26.26,0,0,0,.1.2.381.381,0,0,1-.05.45.6.6,0,0,0-.35.35h-.1c0-.05-.05-.1-.1-.2a.379.379,0,0,1-.2.1c-.1-.05-.15,0-.2.05-.2,0-.15.25-.3.3v.05c.1.1,0,.25.05.35a.069.069,0,0,1,0,.1.268.268,0,0,0-.15.2.817.817,0,0,1,0,.35c0,.05,0,.1.05.1.05-.05.05-.05.2-.1a.25.25,0,0,0,.25-.3.331.331,0,0,1,.05-.3c.1-.1.1-.2.15-.3,0,0,0-.1.05-.1h.1v.15c-.1.1-.05.1.05.15a.049.049,0,0,0,.05.05c.05.05.05.15,0,.15-.25,0-.25.3-.4.4v.05c.1.15,0,.25-.1.35-.15.05-.15.2-.15.3.05.1,0,.15-.05.2s-.15.1,0,.15c0,.05-.05.1-.05.05-.05-.05-.15,0-.2,0,0-.1.05-.2.05-.3a.155.155,0,0,0-.05-.1c-.05,0-.15,0-.15.05,0,.1-.05.1-.1.15s-.1.1,0,.2v.1c-.15.15-.1.4-.15.6,0,.1.05.25-.1.35v.1c0,.1.05.25-.15.3-.05,0-.1.15-.15.2a.049.049,0,0,0-.05.05c.1.1,0,.2-.05.25s-.1.05-.1.15c0,.05,0,.05-.05.1-.1.05-.15.1-.15.2,0,.05-.05.05-.1.05-.05-.05-.1-.1-.1-.15.15-.05,0-.25.15-.3v-.1c-.05-.05-.1-.05-.1,0l-.3.2c-.05.1-.05.15,0,.2s.15.05.15.15c-.05.05-.1.15-.25.1,0-.05-.05,0-.05,0-.05.05-.1.1-.2.05l-.05.05c0,.1-.05.2-.05.3,0,.15-.05.3-.1.3-.1.05-.15.1-.15.2a.3.3,0,0,1-.15.3,1.754,1.754,0,0,1-.4.25c-.05,0-.1.05-.15.05-.05.1-.1.25-.25.25-.1,0-.15-.15-.3-.2a.36.36,0,0,1-.2-.35v-.2c0-.05-.05-.15.05-.2,0-.05.05-.1,0-.15,0-.1-.1-.1-.05-.2,0-.1-.05-.15-.05-.25-.05-.05,0-.05.05-.05.05-.1.2-.2.1-.4a.162.162,0,0,1,.1-.25c.05-.05,0-.1.1-.2,0,0-.1,0-.1-.05-.05-.05-.1-.05-.05-.1.1.05.15.05.15-.05s.05-.15,0-.2c-.05-.15,0-.15.15-.3a.069.069,0,0,0,0-.1.155.155,0,0,1,.05-.1c.05-.05,0-.1,0-.15-.1-.05-.05-.15,0-.2a.26.26,0,0,1,.1-.2,1.564,1.564,0,0,0,.25-.5v-.3c0-.1,0-.15.1-.2.05,0,0-.05,0-.1.05-.05-.05-.15.05-.2.05-.1-.05-.2.05-.25.05-.1-.1-.15-.05-.2.1-.1.05-.35.25-.4v-.1c-.05-.05,0-.1,0-.15l.15-.8c0-.2.05-.4.05-.55v-.6a1.667,1.667,0,0,1,0-.5c.05-.15,0-.35.1-.5v-.2a.851.851,0,0,1-.05-.35c0-.15.1-.25.05-.4s-.05-.3-.1-.5l.05-.35c0-.15-.05-.25-.05-.4a.634.634,0,0,0-.05-.3.1.1,0,0,1-.05-.15c.05-.2-.1-.35-.05-.5,0-.05-.05-.05-.05-.1a.787.787,0,0,1-.3-.65.26.26,0,0,0-.1-.2.6.6,0,0,1-.25-.25,2.175,2.175,0,0,0-.3-.35.745.745,0,0,0-.45-.2c-.05.05-.1,0-.1-.05a.335.335,0,0,0-.35-.2,1.177,1.177,0,0,0-.4-.1.927.927,0,0,1-.35-.1h-.1c-.05.05-.1,0-.15-.05a.175.175,0,0,0-.05-.1.506.506,0,0,1-.35-.2.665.665,0,0,0-.4-.15H73.5c-.1-.15-.25-.15-.35-.25a.069.069,0,0,0-.1,0c-.15.05-.25-.2-.4-.05H72.6a.308.308,0,0,0-.35-.05.382.382,0,0,0-.25.1.333.333,0,0,0-.25.35.3.3,0,0,1-.05.2c-.1.1-.1.2-.15.3L71.4-16c-.05.1-.15.25-.05.4v.1a.634.634,0,0,0,.05.3c0,.1.05.25,0,.3-.15.1-.1.25-.15.4a.378.378,0,0,0-.05.2.373.373,0,0,0,0,.45.451.451,0,0,1,.05.25.049.049,0,0,1-.05.05.049.049,0,0,1-.05-.05.175.175,0,0,0-.1-.05c-.05,0-.05.05-.05.1a.422.422,0,0,1-.1.35c-.1.05,0,.15-.05.25-.05.05.05.05.05.1l.05.05c-.1.2-.25.3-.25.55-.15.05-.1.15-.1.2.05.1.05.15,0,.2-.15.15-.1.3-.1.45.05.1,0,.15-.05.2a.352.352,0,0,0-.2.25.9.9,0,0,1-.3.5.175.175,0,0,0-.05.1l-.15.5a1.2,1.2,0,0,1-.35.65.425.425,0,0,0-.15.25.634.634,0,0,1-.05.3c0,.05.05.2,0,.25a.253.253,0,0,0-.05.25c0,.05-.05.1-.05.15-.2.15-.2.35-.35.55-.1.1-.15.3-.3.4-.1.15-.15.25-.05.35,0,.1,0,.1-.05.15-.15.1-.2.3-.35.4a.338.338,0,0,1-.2.3c-.15.05-.2.2-.35.2-.05-.05-.05,0,0,.05-.1.05-.1.1-.2.15-.1,0,.05.15-.05.15-.15.05-.2.25-.35.35a.175.175,0,0,1-.1.05.494.494,0,0,0-.35.35l-.15.15a3.5,3.5,0,0,1-.5.4,2.68,2.68,0,0,1-.55.25c-.1.05-.2-.1-.3,0-.05.05-.05,0-.05-.05,0,0,0-.1-.05-.1-.1.05-.15.15-.2.2s-.15.15-.15.1c-.1-.05-.15,0-.25-.05,0-.05-.05-.05-.05-.1s.05,0,.1,0c.1,0,.15-.05.15-.1s-.05-.2-.1-.15c-.15.05-.2-.1-.25-.15s-.1-.05-.1-.1c-.05-.05-.15.05-.2,0a.184.184,0,0,0-.05-.15l-.25-.3c-.1-.05-.1-.1-.05-.2.1-.1.1-.15.1-.3v-.05a.3.3,0,0,0-.05-.4c-.1-.1-.1-.15,0-.25.05-.05.1-.1.1-.15,0-.15.05-.3.05-.45a.094.094,0,0,0,0-.15,2.774,2.774,0,0,1-.3-.4c-.05-.05-.1-.1-.15-.05-.05,0-.15,0-.15-.05a.155.155,0,0,1-.05-.1c.05,0,.05-.05.1-.05a.049.049,0,0,0,.05.05c.25.1.35.05.4-.2l.05-.35c0-.1,0-.1.1-.1.05.05.1,0,.15-.05.05-.1.15-.25,0-.35a.175.175,0,0,0-.05-.1c0-.05,0-.15.1-.1a.049.049,0,0,0,.05-.05c0-.1,0-.15.1-.15.05,0,.05-.05.05-.1-.05-.05-.1-.1-.2-.05A.275.275,0,0,1,63.6-9a.175.175,0,0,0-.1-.05c-.1,0-.05-.05,0-.1a.1.1,0,0,0,.1-.1c-.1-.05-.15-.25-.35-.25,0,0-.1-.1-.05-.2a.634.634,0,0,0,.05-.3.579.579,0,0,1-.35.25.049.049,0,0,1-.05-.05V-10a.223.223,0,0,0,.25,0,.094.094,0,0,1,.15,0,.356.356,0,0,0,.3-.15c-.15-.05-.15-.15-.15-.25s.1-.1.15-.1a.274.274,0,0,0,.2-.3.806.806,0,0,1,.15-.45.155.155,0,0,1,.05-.1c0-.1-.1-.25-.15-.25-.05-.05-.15-.05-.15.05v.05c-.05.1-.1.15-.2.15a.26.26,0,0,1-.1-.2V-12c0-.05.05-.15.15-.1.1,0,.1-.1.1-.15a.592.592,0,0,0,.5.05c.25-.1.25-.05.05-.3l.15-.2c.15.2.15.2.25.05a.69.69,0,0,1,.2-.15.2.2,0,0,0,.1-.3v-.25h.05c.05.05-.05.1.05.15h.15c.05-.05.15-.05.2-.1.1,0,.15-.1.15-.25.05-.15-.05-.25.05-.4.05-.05,0-.05,0-.1-.1-.05-.15-.15-.05-.25.05-.05,0-.1,0-.2s-.05-.25.1-.3c.05,0,.05.1.1.1.1.05.1.05.05.15,0,.1-.05.2.05.25.05,0,.1-.05.15-.1,0-.1.1-.2.1-.3,0-.05-.15-.05-.15-.15a.049.049,0,0,0-.05-.05c.15-.1.15-.1.2-.2a.108.108,0,0,1,.1-.1l.15-.15-.15-.1a.049.049,0,0,1-.05-.05c.05-.05,0-.1-.05-.15a.69.69,0,0,0-.15-.2,1.091,1.091,0,0,1-.2-.25c.3.1.35.35.55.55a2.165,2.165,0,0,1,.05-.25c.05-.1.05-.2.2-.25a.338.338,0,0,0,.2-.3c0-.05,0-.1.05-.1.1-.05.1-.1.15-.1a1.418,1.418,0,0,0,.4-.55.287.287,0,0,1,.3-.2c.05.05.1,0,.15-.05s.05-.1.1-.1c.15-.05.2-.1.2-.25a.175.175,0,0,1,.05-.1c.15-.15.25-.25.25-.4.05-.05.05-.15.2-.15.05,0,.15,0,.15-.1.1-.15.3-.2.4-.35a.666.666,0,0,1,.15.25.69.69,0,0,0,.2.15v.05a.548.548,0,0,0,.6.4c.1-.05.2-.05.25-.1.35,0,.5-.2.7-.45.05-.05.1-.1.1-.15a.432.432,0,0,1,.15-.3.956.956,0,0,0,.2-.75,3.054,3.054,0,0,0-.15-.65,1.776,1.776,0,0,1-.2-.45,1.741,1.741,0,0,0-.55-.65.806.806,0,0,1-.35-.2,5.3,5.3,0,0,0-.6-.5l-.3-.15c-.15-.05-.3-.05-.5-.1a2.437,2.437,0,0,1-.55-.2,4.692,4.692,0,0,1-.75-.3H67.4c-.05-.2-.2-.2-.35-.25a1.5,1.5,0,0,0-.4-.2c-.1-.1-.2-.15-.3-.1a.184.184,0,0,1-.15-.05c-.05-.05-.1-.05-.2-.05a.3.3,0,0,0-.2-.05,1.278,1.278,0,0,0-.75,0,.439.439,0,0,1-.35.05c-.1.05-.15-.05-.25,0a.236.236,0,0,1-.3.05.3.3,0,0,0-.2.05.275.275,0,0,1-.25.15c-.1.05-.15.1-.15.2,0,.05-.05.1-.1.05a.049.049,0,0,0-.05.05c-.05.1-.15.1-.25.1l-.4.15c-.15.05-.35.05-.3.3,0,0-.05.1-.1.05s-.1,0-.1.05a.108.108,0,0,1-.1.1.878.878,0,0,1-.25.2c.05.2-.1.2-.2.25-.05,0-.05.05-.1.1a1.326,1.326,0,0,1-.25.3c-.2.15-.3.4-.55.5v.05a1.177,1.177,0,0,0-.1.4c0,.15.05.15-.1.2-.15,0-.2,0-.25.15a.049.049,0,0,0-.05.05c-.05.05-.15.1-.05.25,0,.05-.05.15-.15.1-.05-.05-.05,0-.05.05.05.05.1.05.1.15a.26.26,0,0,1-.2.1c-.15.05-.2.15-.15.35V-19c-.05.05-.15,0-.15.05a.184.184,0,0,0-.05.15c0,.05,0,.15-.05.15-.2.05-.2.15-.25.25a.26.26,0,0,1-.1.2c-.05.05-.1.1-.1.15a3.87,3.87,0,0,0-.35.8,7.083,7.083,0,0,1-.4.9c-.05.05-.05.15-.1.2-.05.15,0,.35-.15.45-.05,0,0,0,0,.05a1.418,1.418,0,0,1-.2.65c-.05.1-.1.15-.05.25.05.05,0,.15,0,.2a1.23,1.23,0,0,0-.2.55.049.049,0,0,1-.05.05c-.05,0-.05.1-.05.15a.378.378,0,0,1-.05.2.175.175,0,0,0-.05.1c.1.15,0,.3,0,.45a.3.3,0,0,1,.05.2,1.772,1.772,0,0,1-.15.55H57.3c.05.15-.05.2-.05.3a.411.411,0,0,1-.05.35.375.375,0,0,1-.05.25.964.964,0,0,1,0,.65v.05c.1.05.05.1.05.2a7.322,7.322,0,0,0,.1,1.45.634.634,0,0,1,.05.3.634.634,0,0,0,.05.3c.05.05.05.05.05.1,0,.25.05.5.05.75a.184.184,0,0,0,.05.15.851.851,0,0,1,.1.7c0,.05,0,.1.1.05.1,0,.1.05.1.15a.536.536,0,0,0,.1.3,1.258,1.258,0,0,1,.35.6.26.26,0,0,0,.1.2c.05.1.2.15.1.3v.05a5,5,0,0,0,.4.7c.05.1.2.1.25.25.1.25.35.4.5.6a.049.049,0,0,0,.05.05c.1.05.15.15.25.25.05.15.2.25.3.4a1.2,1.2,0,0,0,.4.3.175.175,0,0,1,.1.05c.05.05.1.1.15.1a1.253,1.253,0,0,1,.35.2,1.473,1.473,0,0,0,.65.25c.1-.05.1.05.15.05a1.123,1.123,0,0,0,.7.3c.1-.05.2.05.35,0,.05.1.15.05.25,0h.1a.152.152,0,0,0,.2,0c.15-.05.4,0,.55-.05.05,0,.05.05.05.1s0,.1.1.05c.05,0,.1.05.15,0a.6.6,0,0,1,.4-.1c.1.05.2,0,.3,0a.069.069,0,0,0,.1,0,.368.368,0,0,1,.4-.2c.1.05.15.05.2-.1,0-.05.05-.05.1,0a.049.049,0,0,1,.05.05c.15-.05.3.05.4-.1a.432.432,0,0,1,.3-.15h.1a1.94,1.94,0,0,1,.55-.3,1.089,1.089,0,0,0,.4-.25.878.878,0,0,1,.25-.2,2.175,2.175,0,0,0,.3-.35.5.5,0,0,1,.2-.25,2.748,2.748,0,0,0,.35-.45,1.6,1.6,0,0,0,.15-.7.616.616,0,0,1,.1-.5,1.333,1.333,0,0,0,.35-.7c.05-.15.15-.3.05-.45,0-.05,0-.05.05-.1.05,0,.1,0,.05-.05-.05,0,.05-.05.05-.15a.049.049,0,0,1-.05-.05c-.05,0-.05,0-.1-.05.1,0,.15-.05.2-.05.15,0,.15,0,.15-.1,0-.15,0-.2.1-.25l.15-.15s0,.1.05,0l.1-.15c.05-.1-.05-.25,0-.35l-.05-.05c-.1-.05-.1-.1-.05-.15-.1-.1,0-.15,0-.25V-8.2a.069.069,0,0,0-.1,0c-.05,0-.1.1-.1.15-.05,0-.05.1-.1.05-.05,0,0-.05,0-.1s-.05-.05-.05-.1c0-.15,0-.2.1-.2.1-.05.15-.05.15-.15.05-.05.1-.1.1-.15.05-.05.1-.1.1,0,.05.05.15-.05.15.05-.05.05-.05.1,0,.1a.094.094,0,0,0,.15,0,.094.094,0,0,0,0-.15c0-.05-.05-.1-.1-.15V-8.9c.05-.05.05-.1.1-.05h.05c.15.05.15.05.3-.1H71c-.05.2-.05.4-.1.6a1.546,1.546,0,0,1-.1.4c-.05.15,0,.35-.1.5v.1c.05.05,0,.15,0,.2l-.05.35c-.05.2,0,.35-.05.5a3.465,3.465,0,0,0-.15,1,6.052,6.052,0,0,0,.05.95c-.05.15.05.35.05.5v.55c.05.05,0,.1.05.1.1.05.05.15.1.2.1.1.05.2.1.25a.564.564,0,0,0,.15.55v.05a.52.52,0,0,0,.2.4.26.26,0,0,1,.1.2c0,.1.05.2.05.3.05.1.05.25.15.35a1.272,1.272,0,0,1,.1.35.175.175,0,0,0,.05.1.184.184,0,0,0,.15.05c.1,0,.25.05.25.2a.108.108,0,0,0,.1.1c.15-.05.1.1.1.15s-.05.1-.05.15c.1.1.05.2.05.3a.552.552,0,0,0,.4,0c-.05-.05-.1-.05-.1-.15A.049.049,0,0,1,72.55.2c.05.05.15,0,.2.05v.2c.1.05.05.1,0,.15a.124.124,0,0,0,.05.2c.05,0,.05,0,.1.05a.108.108,0,0,1,.1.1c.05.25.15.25.35.2.1-.05.1,0,.15.05a.049.049,0,0,0,.05.05c.1.1.2.1.25,0,.05-.05.05-.1.1-.15l.1.15c.1.2.3.2.5.3.1-.05.15,0,.25,0a.634.634,0,0,1,.3.05A.184.184,0,0,0,75.2,1.65ZM60.9-20.75a.049.049,0,0,1-.05-.05c0-.05,0-.05.05-.05a.049.049,0,0,1,.05.05C60.95-20.75,60.95-20.75,60.9-20.75Zm-.7,1.4-.05-.05a.69.69,0,0,1,.15-.2h.05l-.1.25S60.25-19.3,60.2-19.35Zm8.45.65c-.1-.1-.1-.1,0-.2Zm-3.2,3.45c-.05.05-.1,0-.1-.05-.05-.05,0-.1.05-.1a.155.155,0,0,0,.1-.05.155.155,0,0,0-.05.1C65.5-15.3,65.5-15.25,65.45-15.25Zm-1.6,2.6a.049.049,0,0,1-.05-.05v-.1c0-.05.05-.05.05-.1.05-.05-.05-.1,0-.15.05-.1.15-.05.25-.1.05,0,.05,0,.05.05a.1.1,0,0,1-.05.15.275.275,0,0,0-.15.25C63.95-12.65,63.9-12.65,63.85-12.65Zm7.05,3.3a1.177,1.177,0,0,0-.1-.4c0-.05.1-.1.15-.15.05.2-.05.35.05.5,0,.05,0,.05-.05.05ZM80.4-9c.15.05.15-.15.2-.2a.262.262,0,0,0-.1-.4c-.05.05-.05.15-.1.15-.1.05-.15.1-.1.2S80.3-9,80.4-9Zm-17.35.9c-.05-.2.05-.3.05-.45.05-.05.05-.1.1-.05.05.1.1.1.2.05.05-.05.05,0,.1.05,0,.05,0,.1-.05.1C63.3-8.35,63.25-8.2,63.05-8.1ZM78.4-3.35c-.05.05-.15,0-.25-.05l.25-.15C78.4-3.5,78.5-3.45,78.4-3.35Zm-.55,1c-.2-.15-.1-.35-.1-.5.1-.05.15.1.2,0,.05-.05.15,0,.1.05-.05.1,0,.25-.15.3C77.85-2.5,77.9-2.4,77.85-2.35ZM101.4-12.8a.927.927,0,0,0-.1-.35c0-.15-.15-.25-.25-.2-.05,0-.15,0-.15.05-.05.2-.15.25-.3.35-.15.05-.15.2-.1.35.05.05.1.05.1.1l-.15.15c0,.05-.05.05-.1.1,0,.05-.05.05-.05,0,0,0-.05-.05,0-.05v-.1a1.8,1.8,0,0,0,.1-.55c0-.1,0-.1-.1-.25a.231.231,0,0,0,.15-.25c.05-.05,0-.1-.05-.05s-.1,0-.05-.05a.552.552,0,0,0,0-.4.094.094,0,0,0-.15,0,1,1,0,0,0-.4.5.689.689,0,0,0,0,.45.315.315,0,0,1,0,.3,2.026,2.026,0,0,0-.25.45c0,.05.05.1,0,.15-.1.1-.05.2,0,.3,0,.05.05.1,0,.15a.3.3,0,0,0-.05.35c0,.05.05.05,0,.1-.05.1-.05.25-.15.35-.15.05-.15.2-.05.3.05.1.05.1-.05.2,0,.05,0,.05-.05.1,0,.15-.1.25-.1.4.05.05.05.1-.05.15a.236.236,0,0,0-.05.3.379.379,0,0,1-.1.2.462.462,0,0,0-.15.45c0,.05-.05.1-.05.15a2.78,2.78,0,0,0-.45.85.26.26,0,0,1-.1.2.568.568,0,0,0-.15.4.184.184,0,0,0-.05.15c0,.1-.1.15-.1.2.05.1,0,.2,0,.3a.367.367,0,0,0,.1.3c-.2.05-.15.05-.25.2a.634.634,0,0,1-.05.3.275.275,0,0,0-.15.25l-.15.3c-.1.2-.15.4-.25.6-.05.1-.2.2-.15.35v.05a1,1,0,0,0-.2.4.175.175,0,0,1-.05.1.687.687,0,0,0-.25.4,1.2,1.2,0,0,1-.3.4,1.754,1.754,0,0,0-.25.4c-.1.25-.35.35-.45.6,0,.05-.05.05-.1.1s-.05.05-.1.05a3.435,3.435,0,0,1-.95.95c-.1.1-.2.15-.25.3L94-.4c-.1.05-.1.15-.15.15-.1,0-.1.1-.15.15-.15,0-.15.15-.2.25-.1.2-.15.25-.4.25a.539.539,0,0,0-.4.1,1.272,1.272,0,0,1-.35.1c-.15,0-.25.1-.4.05C91.9.6,91.9.65,91.9.7c-.05.05-.05.05-.1.05A.049.049,0,0,1,91.75.7c0-.05,0-.1-.05-.1a.049.049,0,0,0-.05.05c0,.1-.1.1-.2.15-.1,0-.15-.05-.25,0-.05.05-.1,0-.1-.1,0-.05,0-.1-.1-.1-.05,0-.05-.05-.1-.1,0-.1-.1-.2-.05-.3a.331.331,0,0,0-.05-.3c0-.1-.1-.05-.2-.1-.15,0-.2-.1-.15-.25a.275.275,0,0,1,.1-.25.506.506,0,0,0,.2-.35l.05-.05c.15-.05.15-.1.1-.2a.468.468,0,0,1,.1-.55c.1-.1.25-.2.3-.35,0-.05.05-.1,0-.15-.15-.1-.1-.25,0-.35a1.589,1.589,0,0,0,.15-.45c0-.1,0-.2.1-.25.05.05.1.1.05.2a.241.241,0,0,0,.05.35c.05,0,.05.1.1.1.05.05.05.1,0,.1-.05.1,0,.15.05.15a.305.305,0,0,0,.35-.15c.05-.1.05-.15.1-.15.15-.1.2-.25.3-.35a1.077,1.077,0,0,0,.1-.55c-.05-.15,0-.2.2-.3.15,0,.2-.15.25-.25a.21.21,0,0,0-.15-.3c-.05,0-.1.05-.15,0,0-.1,0-.2.1-.25a.094.094,0,0,0,0-.15.124.124,0,0,1-.05-.2.69.69,0,0,1,.15-.2c0-.05.05-.05.1,0a.694.694,0,0,0,0,.45c0,.05-.05.15,0,.15.1.05.15,0,.2-.05.05,0,.05-.05.1-.1,0-.15.05-.3.05-.5-.05-.1,0-.15.1-.2.05,0,.1-.05.1-.15-.05-.1,0-.1.05-.15.05,0,.1-.05.05-.1a.184.184,0,0,0-.15-.05.049.049,0,0,1-.05.05c-.15,0-.15.15-.3.2-.05-.1-.05-.2-.2-.2-.05,0-.1,0-.05-.05s0-.1,0-.15c.05-.2.05-.3.3-.3a.049.049,0,0,1,.05.05c.05,0,.05,0,.1-.05.05-.1.1-.1.15-.05s.05.1.1.05a.69.69,0,0,0,.2-.15c.05,0,.05-.05,0-.1s-.05-.15-.1-.25c-.05,0-.05-.05-.1,0-.05,0-.05.05-.1.05h-.05c-.05,0-.05-.05,0-.05.05-.1.05-.25.2-.2a.049.049,0,0,0,.05-.05c.05-.15.2-.2.25-.35.15-.15.1-.35.2-.5a.836.836,0,0,1,.05-.6.175.175,0,0,1-.05-.1,2.51,2.51,0,0,1,.1-.6c.05-.1,0-.15-.05-.2s-.15-.1-.1-.2a2.146,2.146,0,0,1,.2-.7,2.166,2.166,0,0,0,.05-.25,1.231,1.231,0,0,1,.05-.6c.05-.05.1-.1.05-.15a.564.564,0,0,1,.05-.4c.05-.15-.05-.35.05-.55a.184.184,0,0,0-.05-.15,1.676,1.676,0,0,1,0-.5.319.319,0,0,0,0-.3v-.15c0-.2-.1-.4-.1-.6,0-.05,0-.05-.05-.05,0-.05-.2-.35-.2-.4a.049.049,0,0,0-.05-.05,3.986,3.986,0,0,0-.4-.8l-.2-.3c-.1-.1-.15-.2-.25-.25-.25-.25-.45-.55-.8-.65L92.1-17c-.05-.05-.05-.1-.15-.15a2.348,2.348,0,0,1-.45-.3c-.1-.1-.2-.15-.25-.25a.507.507,0,0,0-.35-.3l-.15-.1a2.3,2.3,0,0,0-.8-.35.851.851,0,0,1-.35-.05c-.15-.1-.3-.05-.45-.1a.391.391,0,0,0-.4.05c-.05.05-.1.1-.2.05a.382.382,0,0,0-.25.1c-.1.1-.15.2-.3.2a.382.382,0,0,0-.25.1l-.15.1a5.188,5.188,0,0,1-.5.2s.05.05-.05.05c0,.05-.05.05-.1.05H86.5a2.481,2.481,0,0,0-.65.15.311.311,0,0,0-.3.2c0,.05-.05.1-.1.05-.15-.05-.2,0-.25.15a.049.049,0,0,1-.05.05c-.1,0-.15.05-.2.15,0,.1-.1.05-.1,0-.05,0-.1-.05-.05-.05.1-.1.05-.25.2-.3.05,0,.05-.1.15-.05a.352.352,0,0,0,.2-.25.275.275,0,0,1,.15-.25,2.4,2.4,0,0,0,.55-.45c.05-.05.1-.05.1,0,.1.05.15,0,.25-.05a.379.379,0,0,0,.1-.2c.05-.05.05-.05,0-.1,0-.1-.15-.1-.2-.1-.1.05-.15.1-.2-.05,0-.05-.05-.05-.05,0-.05.1-.1.05-.15.05-.05-.05-.1-.1-.05-.15V-19c.05,0,.05.05.1,0,.1,0,.15.1.25.05.05-.1.15-.1.25-.1.05-.15.15-.15.2-.25s.15-.15.2-.2c.1,0,.1,0,.1.05.05.05.05.05,0,.05a.184.184,0,0,1-.15.05c-.05.05-.05.15-.1.2s0,.1.05.1a.094.094,0,0,1,0,.15c-.05.05-.1.05-.05.1s.1-.05.2,0a.845.845,0,0,0,.25-.1c.05-.05-.05-.05,0-.1v-.05c.05-.05.25-.05.25,0a.094.094,0,0,0,.15,0c.05,0,.1-.1.2-.1.2.05.35-.1.5-.2a1.018,1.018,0,0,0,.3-.75c0-.05-.05-.1,0-.2l.3-.45c0-.05.05-.05.1-.1.1,0,.15-.1.25-.2a1.054,1.054,0,0,0,.05-.95c-.1-.15-.05-.3-.05-.5a1.008,1.008,0,0,0-.15-.55A2.166,2.166,0,0,0,89-23.3c0-.05-.05-.1-.05-.15a1.9,1.9,0,0,1-.45-.65v-.05c-.1-.1-.25-.1-.3-.2s-.05-.2-.15-.3A.049.049,0,0,1,88-24.7c-.2-.25-.45-.35-.6-.6,0-.05-.05-.05-.05-.1l-.75-.3c-.05-.05-.15-.1-.2-.2a.617.617,0,0,0-.4-.2c-.1-.05-.25-.05-.4-.1a4.234,4.234,0,0,0-.85-.2c-.35-.05-.5-.05-.7.25a1.953,1.953,0,0,1-.85.7c-.15,0-.25.1-.4.2-.05,0,0,.05-.05.1,0,.1,0,.05-.05,0l-.05-.05c-.1.1-.25.05-.35.15-.05.05-.1.05-.2.1-.05.05-.1.05-.2.1,0,.05-.1.05-.15.1-.1.05-.2,0-.25.05-.1.15-.3.3-.4.45l-.5.75a4.008,4.008,0,0,0-.65.95.049.049,0,0,1-.05.05,1.192,1.192,0,0,0-.3.55l-.3.75c-.15.3-.2.65-.35,1v.1a1.272,1.272,0,0,1-.1.35v.25c0,.15.15.3.15.45.1.05,0,.2.1.25.15.1.2.3.3.45a1.258,1.258,0,0,0,.35.6c.1.1.25.2.2.4,0,.05.05.05.1.05a.108.108,0,0,1,.1.1c0,.05.05.1.1.15a.183.183,0,0,1,.2.2c0,.05.1.1.15.15.1,0,.15.05.2.15a2.175,2.175,0,0,0,.35.3c.05,0,.05,0,.05.05a1.348,1.348,0,0,0,.4.35.331.331,0,0,0,.3.05.634.634,0,0,1,.45.2.094.094,0,0,0,.15,0c.05,0,.1-.05.2.05,0,.05.1,0,.15,0,.35.05.65-.05.95.15h.05a2.51,2.51,0,0,1,.6.1c.15,0,.2-.05.2-.2,0-.05,0-.05.05-.05s.15-.05.2.05c.05.05.1,0,.15-.05.05-.1.15-.15.25-.05h.05c.1-.1.2,0,.25.05a.747.747,0,0,1,.35-.15h.1a6.983,6.983,0,0,0,.85-.45,2.01,2.01,0,0,1,.8-.4c-.05.1,0,.2.05.2a.672.672,0,0,1,.3.35c0,.05.1.1.1.1.1-.1.05,0,.1.05a.669.669,0,0,1,.05.45.411.411,0,0,0-.05.35.223.223,0,0,1,0,.25v.1c.1.3-.05.55-.05.85,0,.2-.05.45-.05.7a2.51,2.51,0,0,1-.1.6v.25c-.15.2-.05.4-.1.6.1.2-.05.35-.05.55,0,.1-.1.15-.1.25v.3a.375.375,0,0,1-.05.25c0,.05-.05.1-.05.15,0,.2-.15.4-.15.65a4.166,4.166,0,0,0-.2.75,3.234,3.234,0,0,1-.2.65.634.634,0,0,0-.05.3c-.05.1-.05.15-.1.2a1.123,1.123,0,0,0-.3.7.184.184,0,0,1-.05.15c-.05.1-.05.2-.15.3-.05.1.05.25-.05.3v.4a.415.415,0,0,1-.15.4v.1a.927.927,0,0,1-.1.35,1.667,1.667,0,0,0,0,.5c.05.05,0,.1,0,.15a3.377,3.377,0,0,0-.1.7c0,.15.05.3,0,.4-.05.05,0,.1,0,.15a.152.152,0,0,1,0,.2c0,.05,0,.05.05.1v.2a2.427,2.427,0,0,0,0,.85.706.706,0,0,1,.05.45c-.05,0,0,.1,0,.15.05.05.05.15.1.2a2.955,2.955,0,0,0,.3.7.694.694,0,0,1,.25.5A.432.432,0,0,0,87,.6a.735.735,0,0,1,.25.3c.1.1.25.2.3.3a.878.878,0,0,1,.2.25c.1.05.2.05.3.15a4.713,4.713,0,0,1,.5.5c.2.25.5.25.7.45h.1a.26.26,0,0,1,.2.1,3.04,3.04,0,0,0,.9.45l.05.05a.568.568,0,0,0,.4.15l.6.15c.2.05.4.1.55-.05a.152.152,0,0,1,.2,0c.05.1.15.05.2,0a.3.3,0,0,1,.35,0,.049.049,0,0,0,.05-.05c0-.15,0-.15.05-.2a.552.552,0,0,1,.4,0,.331.331,0,0,0,.3-.05c.1-.05.1-.15.15-.15a.439.439,0,0,0,.35-.3.094.094,0,0,1,.15,0l.05.05c.2-.15.3-.45.5-.6a.049.049,0,0,1,.05-.05A.16.16,0,0,1,95,1.9c.05,0,.1-.15.2-.15.15,0,.25-.1.35-.05a.332.332,0,0,0,.25-.2V1.35c.05-.05.1-.15.1-.1.15,0,.2-.1.3-.2A.673.673,0,0,0,96.45.6c-.05-.05,0-.1.05-.15A5.659,5.659,0,0,1,97-.2c.1-.05.15-.2.1-.25,0-.1.05-.2.05-.3a.311.311,0,0,1,.2-.3c.05,0,.05-.05.1-.05.05-.15.1-.15.25-.2a.049.049,0,0,0,.05-.05c-.05-.15.1-.25,0-.4,0-.1-.05-.25.15-.3.05-.05.15-.1.15-.2,0-.05.05-.1.1-.15.15-.1.15-.2.05-.4-.05-.1-.05-.2.1-.3.05,0,.05-.05.1-.1a1.177,1.177,0,0,1,.1-.4,1.1,1.1,0,0,1,.05-.4c.05-.15.2-.25.2-.45a.049.049,0,0,1,.05-.05c.1,0,.1-.1.2-.15.05,0,0-.2.1-.2a.175.175,0,0,0,.05-.1l.05-.2a.955.955,0,0,0,.15-.4c0-.05.05-.05.1,0,.1,0,.15,0,.1-.1,0-.1,0-.15.05-.2a1.421,1.421,0,0,0,.2-.6.665.665,0,0,1,.15-.4c.05-.05.15-.15.05-.25v-.1a.673.673,0,0,1,.25-.45.665.665,0,0,0,.15-.4.184.184,0,0,1,.05-.15.694.694,0,0,0,0-.45v-.1c.15-.2.1-.5.3-.65h.05a1.2,1.2,0,0,1,.15-.45.975.975,0,0,1,.05-.4c.1-.2,0-.35-.1-.5,0-.05-.05-.1-.05-.15a.094.094,0,0,1,0-.15c.1-.05.1-.15.05-.25-.05-.05,0-.1.05-.1.05-.1.15-.1.15-.15a.375.375,0,0,0-.05-.25v-.05c-.05-.1,0-.2.05-.2a.445.445,0,0,0,.25-.4C101.45-12.55,101.4-12.65,101.4-12.8Zm-7.5.95a.108.108,0,0,1,.1.1l-.05.05c-.05,0-.1,0-.1-.1A.049.049,0,0,1,93.9-11.85Zm-.2.3a.094.094,0,0,1,.15,0c.05.05.1.1.05.15a.423.423,0,0,0,0,.35c.05,0,.05.05.05.1s-.05.1-.1.05c-.1-.05-.15.05-.25.1,0-.1.05-.2,0-.25A.581.581,0,0,1,93.7-11.55Zm6.45.35c.1-.1.05-.2.1-.3.15.05.2.1.2.25C100.4-11.15,100.3-11.2,100.15-11.2ZM93.6-9.5c.05.05.1.05.1.15,0,.05,0,.05-.1.05-.05,0-.05-.05-.1-.1C93.55-9.45,93.55-9.5,93.6-9.5Zm-.55,2.45c0-.1.05-.15.05-.2.05-.05.05-.1.1-.05.05,0,.05,0,.1.05,0,.15-.1.3-.2.3C93.05-7,93-7,93.05-7.05Zm-.95,1.6c.1-.05.15-.15.25-.2.05,0,.05,0,.05.05.05,0,0,.05,0,.05-.1.1.05.35-.2.4-.05-.05-.1-.1-.1-.15S92.05-5.4,92.1-5.45Zm-.5,1.4c-.1-.15.05-.25.1-.4.05-.05.05-.05.05-.1.1,0,.2-.1.25-.05.15.05.05.15,0,.25,0,.1.05.25.05.4a.133.133,0,0,1-.15.15c-.1-.05-.15,0-.2.05,0,.05-.05.05-.1.05a.049.049,0,0,1-.05-.05.184.184,0,0,1,.05-.15C91.6-3.95,91.65-4,91.6-4.05Zm-.8,1c.05-.05.1-.05.15.05v.15c.05.1.05.15-.1.2-.05,0-.05.1-.15.15a.094.094,0,0,1,0-.15c0-.05.05-.05,0-.1a.184.184,0,0,1-.05-.15ZM92.1-1.7c.1,0,.2-.1.15-.2,0-.05-.05-.1,0-.1,0-.15-.05-.2-.2-.25-.05,0-.05-.1-.1-.1s-.05,0-.05.05a.927.927,0,0,0-.35.1c-.1,0-.15.05-.2.15-.05.05.05.1.05.15l.1.15c.05.05.05.1,0,.1-.05.05-.05.15-.1.25-.05.05,0,.15,0,.2.1.1.15.15.2.05.05-.05.05-.1.1-.1.1,0,.15,0,.15-.1,0-.05.05-.1,0-.2,0-.05.05-.1.1-.15S92.05-1.7,92.1-1.7ZM91.5-.6c0-.05.05-.1,0-.15-.1-.05-.15-.1-.25-.05-.05.05-.15,0-.2.05a1.676,1.676,0,0,1,0,.5A.8.8,0,0,0,91.5-.6Zm34.65-16.05c-.05-.05-.1-.1-.2-.05,0,.05-.05.1-.1.05-.1-.05-.2,0-.2.05-.1.05-.2.1-.2.2-.05.05-.1.1-.1.05a1.479,1.479,0,0,1,.1-.5.375.375,0,0,0,.05-.25c0-.05,0-.1-.1-.1-.05-.05-.1,0-.1.05-.1.1-.2.1-.25.2a.445.445,0,0,0-.25.4.175.175,0,0,0-.05.1l-.25.55c-.05.05-.05.1-.1.1a1.978,1.978,0,0,0-.5.75,2.166,2.166,0,0,0-.05.25c.15-.05.25-.05.3-.2.1-.15.15-.15.3-.05,0,.1-.05.15,0,.2a.231.231,0,0,1-.15.25,4.4,4.4,0,0,1-.5.3c0-.05-.05-.1,0-.2.05,0,.05-.1,0-.15a.227.227,0,0,0-.25,0l-.3.3c-.05,0-.05.05-.05.1l-.05.2a.094.094,0,0,0,0,.15c.05.15-.15.2-.15.3a.049.049,0,0,1-.05.05h-.05a.184.184,0,0,0-.15.05c0,.05.05.15.05.2h-.2c-.05-.05-.1-.05-.1,0,0,.15-.15.25-.15.4a.275.275,0,0,1-.15.25c-.1.05-.15.2-.3.2-.05.1-.2.15-.3.2a3.017,3.017,0,0,0-.4.4.332.332,0,0,1-.2.25.26.26,0,0,0-.1.2.268.268,0,0,1-.15.2.108.108,0,0,0-.1.1c-.1.15-.05.35-.15.55-.05,0,0,.05,0,.1,0,.1-.05.15-.1.15a.425.425,0,0,0-.35.35,1.093,1.093,0,0,0-.15.25c-.1.05-.2,0-.3,0-.05.05-.1.05-.1.1a.255.255,0,0,1-.2.25l-.05.05c-.1.15-.25.25-.3.4a.638.638,0,0,1-.25.35,2.027,2.027,0,0,1-.45.25v-.05c-.05,0-.05,0-.05-.05a1.231,1.231,0,0,1,.05-.6c0-.1.05-.25,0-.35s0-.25,0-.35a.552.552,0,0,0,0-.4c-.05-.15-.1-.25,0-.4,0-.05-.05-.05-.05-.1,0-.25-.05-.55.15-.75a.382.382,0,0,0,.1-.25.723.723,0,0,1,.1-.35.375.375,0,0,0,.05-.25c-.05-.1-.1-.2,0-.25a.094.094,0,0,0,0-.15v-.2a.184.184,0,0,0,.05-.15,1.278,1.278,0,0,1,0-.75v-.4a.411.411,0,0,1,.05-.35.975.975,0,0,1,.05-.4.184.184,0,0,0-.05-.15c-.15-.2-.1-.35.05-.55.05-.1.1-.15.1-.25s-.1-.2-.1-.3c.05-.1.2-.15.2-.25v-.05c.1-.1,0-.2.05-.3.05-.15,0-.3.1-.4a.439.439,0,0,0-.05-.35A1.875,1.875,0,0,1,119-18a.184.184,0,0,1,.05-.15c.1-.1.05-.25.1-.35a.741.741,0,0,1,.05-.35.976.976,0,0,0,.05-.35c0-.2.15-.3.05-.5a.175.175,0,0,1,.05-.1.367.367,0,0,0,.1-.3v-.6c.05-.2,0-.4.05-.6a.155.155,0,0,0-.05-.1c-.1-.1-.05-.2,0-.3a.531.531,0,0,0-.05-.7,1.93,1.93,0,0,0-.8-.75c-.05,0-.05-.05-.1-.05a2.177,2.177,0,0,0-.8-.5.155.155,0,0,1-.1-.05c-.2-.25-.5-.3-.7-.55a1.848,1.848,0,0,0-.55-.25,2.165,2.165,0,0,1-.25-.05,6.776,6.776,0,0,1-1.05-.5c-.1,0-.2-.1-.35-.1a.069.069,0,0,1-.1,0c-.1-.1-.2-.15-.3-.1h-.05c-.25-.05-.5-.1-.7-.15l-.55-.1a.955.955,0,0,0-.7.35c.1.15.1.15.05.3v.2c0,.05.1.15-.1.15a.155.155,0,0,1-.05.1v.25c-.05.35.1.65,0,1v.05c0,.05.1.1.1.15-.05.1-.1.1-.15.15v.15a.634.634,0,0,1-.05.3.316.316,0,0,0,.05.35c.05.05,0,.15.05.25-.15.1,0,.3-.2.4a.175.175,0,0,1,.05.1.475.475,0,0,1,0,.45v.1c.05.3-.1.5-.1.8a.634.634,0,0,1-.05.3.634.634,0,0,0-.05.3,2.51,2.51,0,0,1-.1.6.568.568,0,0,1-.15.4c-.05.05-.05.15,0,.15a.817.817,0,0,1,0,.35c0,.05-.05.1,0,.15s0,.05-.05.1l-.2.8a1.589,1.589,0,0,0-.1.7.049.049,0,0,1-.05.05,2.637,2.637,0,0,0-.15.6,2.44,2.44,0,0,0-.05.85c-.05.1-.05.2-.15.3a.319.319,0,0,0,0,.3.375.375,0,0,1,0,.45.307.307,0,0,0-.05.3.415.415,0,0,1-.1.4.741.741,0,0,0-.1.65c-.05.05,0,.15,0,.25a.319.319,0,0,0,0,.3c.05.1.05.2,0,.2-.1.1-.1.2-.15.25-.15.1-.15.3-.15.45,0,.1,0,.2-.1.25-.05,0,0,.05,0,.05.05.15.1.25,0,.4a.268.268,0,0,1-.15.2,1.093,1.093,0,0,1,.15.25v.05c-.1.1-.05.2-.05.3a.356.356,0,0,1-.15.3c0,.05,0,.05-.05.05.15.1.05.15,0,.15-.2.1-.1.4-.3.5.1.1,0,.15,0,.2,0,.1-.1.1-.15.15s.05.15.05.2l-.05.05c-.15.15-.15.4-.3.55a.275.275,0,0,0-.15.25,3.444,3.444,0,0,1-.15.4l-.35.4c-.05.05-.15.1-.15.15a.356.356,0,0,1-.15.3c-.05.05-.1.1,0,.15a.049.049,0,0,0,.05.05c.05.15.05.15-.1.2l-.1.1c0,.15-.05.2-.2.2-.1.05-.15.1-.25.1-.05-.05-.1.05-.1.1.05.15-.1.25-.25.35-.05.05-.05.05,0,.15,0,.05,0,.05-.05.05-.05-.05-.1,0-.15,0-.15.1-.35.1-.55.25a.242.242,0,0,1-.35,0,.184.184,0,0,0-.15-.05.5.5,0,0,1-.35-.25.59.59,0,0,0-.25-.25c-.15-.05-.2-.15-.35-.2-.15,0-.15-.15-.2-.25-.05,0-.1,0-.1-.05a.049.049,0,0,1-.05-.05c.1-.1,0-.2-.05-.25-.1-.1-.2-.1-.25-.2-.05-.05-.1-.1,0-.2.05-.05.1-.1.05-.2s.05-.2.1-.25c0-.05.1-.1.05-.1-.05-.05-.25,0-.2-.2h-.1c-.05,0-.05,0,0-.05,0-.05.05-.05,0-.1,0-.05-.05-.1-.1-.15.1-.05.1-.2.2-.2.05,0,.1-.1.1-.15a1.46,1.46,0,0,1,.1-.45v-.1a.389.389,0,0,1,.1-.4c.05-.05.05-.1.05-.2a.069.069,0,0,1,0-.1,1.018,1.018,0,0,0,.3.35c.05,0,0,.1,0,.15-.05.05-.1.05-.1.15a1.467,1.467,0,0,0-.15.5v.1c.05.15.2.25,0,.4a.175.175,0,0,0,.05.1,1.5,1.5,0,0,1,.2.4.108.108,0,0,0,.1.1.432.432,0,0,1,.15-.3c.1-.05.2-.1.15-.25l.05-.05c.15-.05.2-.1.05-.2v-.2c.05-.1.1-.25,0-.3-.05-.05,0-.15-.05-.15,0-.05-.1-.1-.15-.15,0-.1,0-.1-.05-.15a.049.049,0,0,1-.05-.05c.15-.1.1-.25.2-.35a.634.634,0,0,0,.05-.3.367.367,0,0,0-.1-.3.155.155,0,0,1-.05-.1c.1-.1.05-.2.1-.3l.25-.55a.634.634,0,0,1,.05-.3c.05-.15.1-.3-.1-.4a.175.175,0,0,0-.05-.1c0-.1-.05-.15-.1-.25l-.25.15c-.1.05-.25.05-.3.2a.3.3,0,0,1-.2.05c-.05-.05-.15-.05-.1-.2a.268.268,0,0,0-.15-.2c-.1,0-.15-.05-.15-.2,0-.05-.05-.05-.05-.1-.05-.1-.05-.2,0-.2.1-.05.2-.05.25.05l.05.05c.1,0,.1-.05.1.05l.05.35a.1.1,0,0,0,.15.05c.15-.1.35-.1.4-.3.05-.05.1-.1.15-.1a.094.094,0,0,1,.15,0c.05.15.15.1.25.05a.26.26,0,0,0,.2-.1l.1-.1c0-.05-.1-.05-.05-.1s.15,0,.15-.05c-.05-.05,0-.1-.05-.15-.1-.1-.15-.1-.3,0-.05.05-.1,0-.1-.05a.094.094,0,0,1,0-.15l.15-.15.05-.05c-.15-.15,0-.2.05-.3a1.384,1.384,0,0,0,.05-.45.268.268,0,0,0-.15-.2c-.05-.05-.05-.15-.1-.2,0-.05.1-.05.1-.1l-.15-.15a.184.184,0,0,1-.05-.15h.15c0,.05.05.05.1.05,0,.1.05.05.1,0a.049.049,0,0,0,.05-.05c-.05-.1-.05-.2-.1-.25s-.05-.05-.05-.15a.124.124,0,0,0-.05-.2.108.108,0,0,1-.1-.1.711.711,0,0,0-.1-.3c-.05-.1-.05-.15.05-.2a.175.175,0,0,0,.05-.1c0-.2.15-.35.1-.55,0-.05.05-.1.05-.15,0-.1.05-.1.1-.1h.2c.05.05-.05.15.05.15-.05.05-.1.1-.1.15v.15a.236.236,0,0,0-.05.3.711.711,0,0,0,.3-.1.379.379,0,0,0,.1-.2l.05-.05a.094.094,0,0,0,0-.15,1.6,1.6,0,0,1,.1-.85.184.184,0,0,0,.05-.15,2.769,2.769,0,0,1,.1-.9c0-.1.05-.15.05-.2-.05-.15.05-.25.1-.4.1-.15.05-.35.1-.55v-.05a1.039,1.039,0,0,1,.05-.55,1.8,1.8,0,0,0,.1-.55.184.184,0,0,1,.05-.15,2.137,2.137,0,0,0,.3-1v-.15l-.15-.45a1,1,0,0,0-.4-.2c-.05,0-.15-.05-.15-.1,0-.15-.1-.2-.25-.25a1.332,1.332,0,0,1-.5-.3.58.58,0,0,0-.5-.2h-.1a3.485,3.485,0,0,1-.95-.3,2.819,2.819,0,0,0-.6-.2,2.068,2.068,0,0,1-.95-.25,1.477,1.477,0,0,0-.65-.1,3.86,3.86,0,0,0-.75.1h-.05a2.725,2.725,0,0,0-1.1-.05.2.2,0,0,0-.2.1c-.05.1-.1.2-.25.2a.155.155,0,0,0-.1.05.094.094,0,0,0,0,.15.752.752,0,0,1,.2.55,1.36,1.36,0,0,1,0,.45,7.585,7.585,0,0,0-.15,1.05c0,.1,0,.15-.05.2,0,.1-.05.2-.05.3-.05.15,0,.35-.05.55a1.372,1.372,0,0,0-.1.65c0,.2-.1.4-.1.6a5.509,5.509,0,0,0-.1.9,2.481,2.481,0,0,0-.15.65,3.784,3.784,0,0,0-.05.75v.15a.531.531,0,0,0-.05.4v.25l-.05.2a.049.049,0,0,1,.05.05c0,.1.05.2-.05.3a1.331,1.331,0,0,0-.15.6c0,.25-.05.5-.05.75a1.114,1.114,0,0,0,0,.7.184.184,0,0,1-.05.15c-.05.2.05.4-.05.6l.05.2a.094.094,0,0,1,0,.15.307.307,0,0,0-.05.3v.05c-.1.1-.05.25-.05.35v.1c0,.2-.1.35-.05.5a.427.427,0,0,1,0,.35c0,.1,0,.25.1.25.15.05.15.1.05.25v.05c.1.1,0,.2.05.3s0,.2,0,.3a.375.375,0,0,0,.05.25c.05.05.05.05.05.1a1.067,1.067,0,0,0,0,.4,1.665,1.665,0,0,0,.25.75l.1.15c.05,0,0,.05,0,.15a.579.579,0,0,0,.25.35c.05.05.05.05.05.1-.05.1-.05.15.05.2.05,0,.05.1,0,.15a1.1,1.1,0,0,0,.1.7.184.184,0,0,1,.05.15c0,.15.15.25.1.4a.155.155,0,0,1,.1.05.584.584,0,0,1,.3.3.049.049,0,0,0,.05.05c.15.15.2.35.35.45.1.05.1.15.15.2,0,.1.05.15.15.1.1,0,.05.15.1.2.1,0,.15.1.2.15a.6.6,0,0,0,.25.25,1.253,1.253,0,0,1,.35.2c.05,0,.1.05.15.1a.369.369,0,0,0,.3.25c.05,0,.15-.05.2,0v.05c-.1.2-.05.25.2.2.05,0,.1.05.15.05a.382.382,0,0,0,.25.1.425.425,0,0,1,.25.15,1.962,1.962,0,0,0,.7.4c.1.05.2.05.25.1.05,0,.1.05.1,0,.1-.05.15,0,.2,0,.05.05.05.05.1.05.1-.1.25-.05.35,0,.05,0,.1.05.15,0,.1-.1.2-.05.35,0a.223.223,0,0,0,.25,0,.851.851,0,0,1,.35-.05.375.375,0,0,0,.25-.05c.15-.1.25-.2.45-.15a.2.2,0,0,0,.2-.1.049.049,0,0,0,.05-.05.967.967,0,0,0,.45-.25,1.011,1.011,0,0,1,.55-.3c.1-.05.15-.15.25-.1.05-.05.15-.1.2-.2,0-.05,0-.15.1-.1.05,0,.05,0,.05-.05A.155.155,0,0,0,109-3c-.05-.1,0-.2.15-.25.1,0,.15-.05.2-.15a.268.268,0,0,1,.2-.15c.15-.05.2-.1.2-.25,0-.1.05-.15.15-.2.15,0,.2-.1.2-.25a1.473,1.473,0,0,1,.25-.65c.05-.1.15-.15.2-.25s0-.2.05-.3a.592.592,0,0,0-.5.05.88.88,0,0,0,.05-.3c-.05-.1,0-.2.05-.15.1,0,.2-.1.2.05.05.05.1,0,.15,0l.1-.1c.15-.05.15-.05.15-.2a.9.9,0,0,0-.25-.35c-.1-.1-.1-.1-.05-.2,0-.05,0-.05.05-.1.1-.05.1-.2.1-.3a.375.375,0,0,1,.05-.25v-.2a.22.22,0,0,1,.05-.25.367.367,0,0,0,.1-.3c-.05-.2-.05-.4.2-.5a.184.184,0,0,0,.05-.15c.1-.1.15-.1.25,0,0,.05,0,.1.05.05.1-.05.15-.05.2-.15,0-.1.05-.15.05-.25a.367.367,0,0,1,.1-.3c.05-.1-.05-.2,0-.3.05-.05-.05-.05-.05-.05-.05-.1-.1-.2-.05-.25.05-.1,0-.25.15-.25a.225.225,0,0,0,.15-.15c0-.2.15-.35.1-.55a.108.108,0,0,1,.1-.1c.1-.05.1-.1.1-.2,0-.3,0-.3.2-.5a.634.634,0,0,1,.05.3v.85c-.05.2-.05.35-.1.5a2.017,2.017,0,0,0,0,.55c.1.25-.05.5.05.7v.15a1.479,1.479,0,0,0-.1.5c0,.15.05.3.05.45,0,.2-.05.45-.05.7a1.394,1.394,0,0,0,.05.9.451.451,0,0,0,.05.25.539.539,0,0,1,.1.4,1.384,1.384,0,0,1-.05.45.694.694,0,0,0,0,.45l.05.2c-.1.2,0,.45-.2.65v.15c0,.05,0,.1-.05.1s-.15,0-.05.05a.094.094,0,0,1,0,.15c0,.05-.05.1-.05.15.05.1.05.15-.05.2a.108.108,0,0,0-.1.1c-.05.2-.25.3-.35.5,0,.05,0,.05-.05.05-.15.05-.2.2-.25.3-.05.05-.05.15-.1.2a2.284,2.284,0,0,0-.55.8c-.05.1-.1.25-.25.3h-.05a.374.374,0,0,1-.3.35,1.564,1.564,0,0,0-.25.5c-.05.15-.05.15-.15.1a.184.184,0,0,0-.15.05c0,.05-.1.05-.05.15-.1.1-.1.25-.2.35a2.621,2.621,0,0,0-.5.55c-.05.1-.2.15-.25.25l-.25.3a.735.735,0,0,1-.3.25c-.05.1,0,.2-.1.25-.05.05-.15.05-.25.1-.05,0-.05.1-.1.15,0,0-.05.1-.1.1-.15.05-.15.15-.15.25.05.2-.15.3-.1.45a.049.049,0,0,1-.05.05c-.15.05-.2.2-.25.3s-.15.15-.15.3a6.349,6.349,0,0,0-.6.5c0,.05-.05.05-.05.1a.711.711,0,0,1-.1.3c-.05.15-.15.35,0,.5,0,.1.1.2,0,.25-.05.1,0,.15,0,.2a.694.694,0,0,1-.1.55,3.184,3.184,0,0,0-.5.9.215.215,0,0,1-.2.2c-.15.05-.15.2-.15.3a.21.21,0,0,1-.15.3c-.05,0,0,.15-.1.2-.05,0,0,.05,0,.1V8.7a3.935,3.935,0,0,0-.2,1,3.86,3.86,0,0,0-.1.75,5.741,5.741,0,0,0-.05.95v.05a1.311,1.311,0,0,0-.1.75.975.975,0,0,1-.05.4c0,.05.05.1.05.15.15.1.25.2.15.4a.319.319,0,0,0,0,.3,1.418,1.418,0,0,1,.2.65.229.229,0,0,0,.2.25c.15.05.15.1.15.2s0,.15.05.2a1.091,1.091,0,0,0,.2.25c.05.05.1.1.15.05s.05-.05.1,0c0,.05.1.05.15.05a1.253,1.253,0,0,1,.35.2c.2.15.5.25.75.4a.451.451,0,0,1,.25.05c.05.05.15.05.2.1.05.1.15,0,.2.05a.308.308,0,0,0,.35.05.975.975,0,0,1,.65.05.184.184,0,0,0,.15-.05.049.049,0,0,1,.05-.05c.1.05.15.1.15-.05,0-.05.1,0,.1,0a1.307,1.307,0,0,0,.4.15c.05,0,.1-.05.15-.05a2.017,2.017,0,0,0,.55,0c.05-.05.1-.05.1-.1a.451.451,0,0,0,.05-.25c-.05-.1-.05-.15.1-.15.1,0,.2,0,.2-.15l.05-.05c0-.1.05-.15.2-.15.1,0,.15-.1.25-.05a.183.183,0,0,0,.25-.1c0-.05.05-.05.05-.1a.728.728,0,0,1,.45-.3c.05,0,.05,0,.05-.05.1-.1.3-.1.35-.3,0,0,.1,0,.1-.05.1,0,.05.05.05.1,0,.1-.05.15-.1.25a1.093,1.093,0,0,0,.25-.15c.15-.05.2-.2.25-.35-.1.05-.25-.1-.3.1-.05,0-.1,0-.1-.05.05-.1-.1-.25.05-.4a1.1,1.1,0,0,0,.05-.4c0-.1-.05-.2.1-.2a.108.108,0,0,0,.1-.1.275.275,0,0,1,.25-.15c.05-.05.15-.05.2-.1,0-.1.1-.15.15-.2,0,.05.1.1.1.15h-.05c-.2.2-.2.2-.1.45v.05c0,.05-.05.05-.05.1.05.05.2.1.25.05a2.175,2.175,0,0,1,.3-.35.415.415,0,0,0,.1-.4c0-.05-.05-.15.05-.2a.049.049,0,0,0,.05-.05l-.1-.15c-.1-.05-.1-.2-.2-.3-.05-.05.05-.3.15-.25s.15-.05.25-.05.15,0,.15.1v.1c0,.05.15.2.2.15.05,0,.1-.1.05-.2,0-.1,0-.2-.1-.25a.094.094,0,0,1,0-.15c.05-.15.15-.15.25-.15.2-.05.25-.05.25.15,0,.05,0,.05.05.05l.15-.35c.05-.1,0-.15-.05-.25-.05,0-.1-.05-.15-.1V10.6a2.31,2.31,0,0,0,.35-.35l.15-.35c.05-.1.15-.2.1-.3V9.55c.15-.05.1-.2.15-.3a.184.184,0,0,1,.05-.15,3.769,3.769,0,0,0,.3-.65.7.7,0,0,0,0-.55.2.2,0,0,1,.1-.2c.05-.1.15-.2.1-.3,0-.1.05-.1.1-.15.1,0,.1-.05.05-.15a.864.864,0,0,1,.05-.5.451.451,0,0,0,.05-.25c-.05-.15,0-.2.1-.25.2-.1.2-.3.25-.4a.214.214,0,0,1,.05-.3c.05-.1,0-.2.1-.2.1-.1-.05-.15-.05-.2s.05-.1.05-.15c.05-.05.1-.1.1-.15V4c-.05-.05-.05-.1,0-.2.1-.2,0-.45.1-.7V3a1.039,1.039,0,0,1,.05-.55.975.975,0,0,0,.05-.4.094.094,0,0,1,0-.15.175.175,0,0,0,.05-.1c-.05-.1,0-.15.05-.2a.184.184,0,0,0,.05-.15c0-.1.05-.25,0-.35V.8c.05-.2.05-.45.1-.7a4.234,4.234,0,0,1,.2-.85,2.51,2.51,0,0,0,.1-.6c0-.1-.05-.2.05-.25,0-.15.1-.3.05-.45,0-.05,0-.05.05-.1.1,0,.05-.1.05-.15a.184.184,0,0,1-.05-.15,2.951,2.951,0,0,0,.1-.7v-.3a14.427,14.427,0,0,0,.2-1.45c0-.05.05-.1.1-.15.25-.1.4-.3.65-.4,0-.05.05-.05.05-.1.1-.1.1-.2.2-.3a4.508,4.508,0,0,1,.5-.45c.1-.1.15-.2.25-.25a1.418,1.418,0,0,0,.45-.5,3.705,3.705,0,0,1,.6-.65l.15-.15c0-.1.1-.15.15-.25.1-.05.1-.2.15-.25.15-.1.2-.25.4-.3l.05-.05c.05-.15.15-.2.2-.3.05-.15.2-.3.15-.5,0-.05.05-.1.1-.15a1.311,1.311,0,0,0,.25-.45.108.108,0,0,1,.1-.1,3.235,3.235,0,0,0,.4-.45c.05,0,.1-.1.15-.1.1,0,.1-.05.15-.1a1.023,1.023,0,0,1,.4-.4c.05,0,.05-.05.1-.05l.2-.35c0-.2.2-.2.25-.35v-.05a2.348,2.348,0,0,1,.3-.45,1.5,1.5,0,0,0,.3-.55,2.536,2.536,0,0,1,.45-.8,3.447,3.447,0,0,0,.35-.75.711.711,0,0,1,.1-.3c.15-.2.2-.4.35-.6a2.254,2.254,0,0,1,.15-.55C126.4-16.4,126.4-16.4,126.15-16.65Zm-20.9-.05s0-.1.1-.05a.175.175,0,0,1,.05.1c0,.1-.1.2-.2.15a.049.049,0,0,1-.05-.05Zm20.05.7a1.093,1.093,0,0,0-.15.25c0,.05-.05.1-.1.05s-.05-.05-.05-.1c-.15-.15-.15-.15.05-.3l.1-.1.05-.05A.183.183,0,0,1,125.3-16Zm-20-.15a.367.367,0,0,0-.1.3C105.05-16.05,105.05-16.05,105.3-16.15Zm-.2,1.1c-.15-.05-.25-.1-.25-.25C105.15-15.35,105.2-15.3,105.1-15.05Zm-.3.45c0-.05.05-.1.1-.15.05,0,.1.05.15.1v.05h-.1c0-.05,0,0-.05,0a.69.69,0,0,1,.15.2c0,.05.05.1,0,.15,0,.05-.05.05-.1.1-.05,0-.1.05-.05.15,0,.05-.1.1-.1.2-.1-.05-.15-.1-.15-.2A2.637,2.637,0,0,0,104.8-14.6Zm.65.85c0-.05.05,0,.05,0,.05.05.15.05.2.15-.05.1-.15.1-.25.05-.05,0-.05-.1-.05-.15A.049.049,0,0,1,105.45-13.75Zm.2,1.15c0,.05-.05.05-.1.1a.049.049,0,0,0-.05.05c.1.1-.05.15-.05.25a.069.069,0,0,0,0,.1c.05.1,0,.25,0,.35s0,.15-.05.2c-.1.05-.05.2-.2.2,0,0-.1,0-.1.05,0,.1-.05.1-.1.05-.1,0-.15-.05-.15-.1,0-.1,0-.15-.05-.2-.05-.15-.15-.25,0-.35.05-.05,0-.1.05-.15.05-.1.05-.2.1-.25.05-.1.05-.2.1-.25.05-.1.05-.25.1-.35,0-.05,0-.05-.05-.1-.2-.1-.2-.1-.05-.3.05,0,.05-.05.1-.1s.05-.05.25-.05a.3.3,0,0,0-.05.2,1.5,1.5,0,0,1,.2.5c.05.05.1.1.15.1,0,.05.05.05.05.1C105.7-12.5,105.7-12.6,105.65-12.6Zm-1.2,3.45.05-.05c-.05-.2.15-.2.3-.3,0-.05.05-.1.1-.05.05.1.05.2,0,.2-.05.05-.1.05-.1.1-.05.15-.15.35-.05.5a.451.451,0,0,0,.05.25.175.175,0,0,1-.1.05c0-.1,0-.25-.15-.3,0,.05.05.15-.1.1v.15c-.1-.1-.1-.1,0-.15a.378.378,0,0,0-.05-.2A.236.236,0,0,1,104.45-9.15Zm.7,3.95c.05-.1.1-.1.15-.1a.049.049,0,0,0,.05-.05c0-.1,0-.2-.1-.25.05-.15-.05-.2-.05-.3h-.1c-.1.15-.1.15-.1.4v.1c-.05.15.15.05.1.15A.049.049,0,0,0,105.15-5.2Zm5-.1c-.05.05-.05.05-.1.05-.05.1-.1.05-.15,0a.049.049,0,0,1-.05-.05c.05-.1.1-.05.15-.05.05-.05.05-.05.1,0Zm1.55,8.4a2.884,2.884,0,0,0-.15.7l-.15.85a.851.851,0,0,0-.05.35l-.4,1.15a6.947,6.947,0,0,0-.3.95c0,.1-.05.15-.05.2a.845.845,0,0,0-.15.5c.05.05,0,.15-.05.25s0,.25-.05.35-.05.25-.15.35a.942.942,0,0,0-.1.4.723.723,0,0,1-.1.35l-.05.05a3.986,3.986,0,0,0-.15.75c0,.1.05.2,0,.3v.25c0,.1,0,.15-.05.2a3.919,3.919,0,0,1-.25.7c-.05.1-.15.15-.15.3-.05.1-.05.2-.1.3a.711.711,0,0,0-.1.3l-.1.15c-.1.05-.15.15-.05.25.05.05.1.05.1.15-.05.05-.1.15-.15.1-.2,0-.25.15-.3.3a.223.223,0,0,0,0,.25c-.1.15-.05.35-.15.5-.1.2-.15.25-.35.25h-.1a.184.184,0,0,1-.05-.15c0-.1,0-.2-.1-.2l-.3-.3a.378.378,0,0,1-.05-.2c0-.1.1-.1.05-.2,0-.05.05-.15,0-.2.15-.1.1-.15.05-.25-.05,0-.05-.05,0-.1,0-.05.05-.1.05-.15,0-.1.05-.15-.05-.25a.666.666,0,0,0-.25-.3c-.05-.05-.1.05-.15-.05a.375.375,0,0,1,.05-.25c.1-.15-.05-.25-.1-.35s-.1-.15-.1-.25a.5.5,0,0,0-.05-.15c-.15-.1-.1-.15-.1-.25.05-.2.05-.2-.05-.3l-.05-.05c-.05-.05-.1-.15-.2-.2.05-.1-.05-.2.05-.3,0-.05.05-.1.05-.15a.275.275,0,0,0-.1-.25c-.2-.1-.2-.2-.05-.4a.184.184,0,0,0,.05-.15c.1,0,.1.1.1.15.05.05.1.1.15.05a.108.108,0,0,0,.1-.1c-.05-.15.1-.2.2-.2.05-.05.1-.05.1-.1a1.479,1.479,0,0,0,.1-.5V8.45c-.15-.1-.1-.2-.05-.3a.378.378,0,0,0,.05-.2c.05-.15.05-.3.15-.4a.184.184,0,0,0,.05-.15V7.3c.25-.1.05-.3.1-.4,0-.1-.05-.1-.1-.15-.1.05-.15.15-.25.25a.476.476,0,0,0-.1.35v.1c0,.1,0,.2-.15.25-.05.05-.1.05-.1.1-.15.05-.2.05-.2,0-.05-.15-.15-.15-.25-.2q-.15-.225-.3,0c-.05.05-.05.05-.1,0-.1-.05-.25-.15-.2-.3a.175.175,0,0,1,.05-.1.312.312,0,0,0,.25-.15c.1-.1.15-.15.3-.1.05.05.2,0,.15-.1,0-.05,0-.1.05-.1.1-.05.1-.1.15-.2h.05c.05-.05.05,0,.05,0a.184.184,0,0,0,.05.15c0,.05.1.05.15,0,0-.05.05-.1.1-.2.05-.05.05-.1-.05-.15-.05,0-.1-.05-.15,0s-.1,0-.1-.05c-.05,0-.05-.05,0-.05.25,0,.2-.2.25-.35,0-.1,0-.15-.1-.15s-.1-.05-.1-.1c.05-.1.1-.15.05-.25l-.05.05c-.05.05-.05,0-.1-.05V5.35a.069.069,0,0,1,.1,0l.05.05c.1,0,.15-.1.25-.2l.2-.15c.2.05.35-.05.55-.05,0,.05.05.05.05.1s.05.05.1.1c.05,0,.1.05.15.05l.15-.15a.415.415,0,0,0,.15-.4.184.184,0,0,0-.05-.15c-.05,0-.15,0-.15.1-.05.05-.05.1-.1.2-.05.05-.2.1-.25.05a.108.108,0,0,1-.1-.1V4.45c0-.05.05-.15.15-.1a.379.379,0,0,0,.2-.1c-.05-.05-.05-.2-.2-.15-.05,0-.1-.15-.05-.2a.9.9,0,0,1,.45-.3,1.093,1.093,0,0,0,.25-.15c.05-.1.05-.1.15-.05.05.05.1.05.15-.05.05-.05.15-.1.2-.2.05-.05.1,0,.15.05s.1,0,.15-.05c0-.2.15-.4.05-.65a.372.372,0,0,0,.5-.15.506.506,0,0,1,.35-.2c.05.05.1-.05.15-.05,0,.05.05.05.1,0,.05,0,.1-.05.15-.1s.1-.05.05-.15a.175.175,0,0,1,.1-.05c.05.05.1,0,.15-.05.05,0,.05-.1.05-.15s.1-.1.2-.2a.26.26,0,0,0,.1-.2V1.15c.15-.15.25-.35.45-.45a10.68,10.68,0,0,1-.3,1.75v.1A.548.548,0,0,1,111.7,3.1Zm-2.25.4c-.05,0-.05-.05-.1,0a1.093,1.093,0,0,1-.25.15c-.05.05-.15.1-.05.2,0,.05-.05.05-.05.1-.05.05-.1.05-.1.1,0,.1-.1.1-.1.2a.528.528,0,0,0,.25-.1c.05-.15.2-.25.3-.35.1-.05.05-.2.1-.25S109.45,3.5,109.45,3.5ZM107.6,6.6v.05c.05,0,.1-.05.15,0,.1.05.15,0,.2-.1v-.2C107.6,6.35,107.6,6.35,107.6,6.6Zm-.7,3.3c-.1.05-.1.1-.05.2a.175.175,0,0,1,.05.1c0,.1.05.15.1.1a.108.108,0,0,0,.1-.1V10a1.093,1.093,0,0,1-.15-.25C106.95,9.8,106.95,9.9,106.9,9.9Zm.4,2.7c0,.15-.1.15-.15.25h-.1l-.15-.1c-.1,0-.1-.15-.2-.15-.05-.05-.15-.05-.25-.1-.1,0-.1-.1-.15-.2a.806.806,0,0,0-.2-.35c-.1-.1-.05-.25.05-.25s.15-.1.2-.15c.1-.15.1-.2,0-.3l-.1-.15a.451.451,0,0,1,.25-.05c.05,0,.1-.05.15,0a.184.184,0,0,0,.05.15c.05,0,.05.05.05.1-.05.05-.05.05-.05.1-.15.1-.2.25,0,.4v.1l-.25.3c.05.1.15.05.2.05.1.05.15,0,.25.1,0,.05.1.1.25.05C107.25,12.35,107.35,12.45,107.3,12.6Zm-.45-1.15c0-.05.05,0,.05,0a.094.094,0,0,1,0,.15h-.05v-.05C106.8,11.5,106.8,11.45,106.85,11.45Zm0,2.35c-.15-.15-.35-.25-.45-.5v-.25c.05-.05.1,0,.15-.05.05,0,.05-.05.15,0v.15c0,.05,0,.1.1.15s.1.15.1.25A2.166,2.166,0,0,1,106.85,13.8Zm6.2-.15a.183.183,0,0,0-.25-.1c-.15,0-.05.1-.1.15-.1.05,0,.15-.1.25l.1.05C112.85,13.95,112.9,13.75,113.05,13.65Z" transform="translate(0 46.113)" fill="#3c3c3c"/></svg>